<svg xmlns="http://www.w3.org/2000/svg" viewBox="0 0 248.67 89.37"><defs><style>.cls-1{fill:#ed8b00;fill-rule:evenodd;}</style></defs><g id="Capa_2" data-name="Capa 2"><g id="Capa_1-2" data-name="Capa 1"><path class="cls-1" d="M96.44,28.38s26.1,30,26.65,30.57a1.5,1.5,0,0,0,2.5-.1c.68-.76,26.56-30.45,26.56-30.45h0a3.27,3.27,0,0,0,.09-4.25l-.11-.14c-3.85-4.21-13.46-12.81-27.68-12.81h-.28C110,11.2,100.37,19.78,96.51,24l-.18.25a3.25,3.25,0,0,0,.14,4.12Z"/><path class="cls-1" d="M247.36,12.12C242.62,7.85,231.39,0,212.86,0,187.39,0,171,19.36,171,19.36L130.29,65.93c-5.29,4.14-9.54,2-11.48.55L77.61,19.36S61.22,0,35.75,0C17.08,0,5.82,8,1.13,12.22l-.28.33A3.36,3.36,0,0,0,0,14.79a3.41,3.41,0,0,0,1,2.42H1l58.82,59A44.08,44.08,0,0,0,91,89.37a41.26,41.26,0,0,0,27.54-10.5v0s4.49-4.93,10.85-.63a41.26,41.26,0,0,0,28.18,11.08,44.11,44.11,0,0,0,31.2-13.15L247.44,17.4a3.38,3.38,0,0,0-.08-5.28"/></g></g></svg>