<svg xmlns="http://www.w3.org/2000/svg" viewBox="0 0 1007.5 361.3"><defs><style>.cls-1{fill:#ed8b00;fill-rule:evenodd;}.cls-2{fill:#473729;}</style></defs><g id="Capa_2" data-name="Capa 2"><g id="Capa_1-2" data-name="Capa 1"><path class="cls-1" d="M444.56,59.73s54.92,63,56.07,64.32c1.58,1.78,3.47,1.82,5.27-.19,1.45-1.61,55.89-64.09,55.89-64.09h0a6.89,6.89,0,0,0,.19-8.93l-.23-.31c-8.1-8.84-28.33-26.95-58.24-26.95h-.58c-29.88,0-50.09,18-58.21,26.92l-.39.53a6.87,6.87,0,0,0,.29,8.67Z"/><path class="cls-1" d="M762.19,25.51C752.2,16.51,728.56,0,689.56,0c-53.59,0-88.1,40.74-88.1,40.74l-85.68,98c-11.13,8.72-20.06,4.3-24.16,1.17L404.93,40.74S370.42,0,316.83,0c-39.29,0-63,16.76-72.85,25.71l-.6.7a7.13,7.13,0,0,0,.33,9.8l0,0,123.8,124.18s24.41,27.67,65.67,27.67A86.73,86.73,0,0,0,491.09,166v.12s9.44-10.4,22.84-1.34a86.88,86.88,0,0,0,59.3,23.31c41.27,0,65.66-27.67,65.66-27.67L762.35,36.62a7.15,7.15,0,0,0-.16-11.11"/><path class="cls-2" d="M861.36,350.55c-.39-4.06-.68-11.23-.88-21.21-.11-7.25-2.25-13.45-6.36-18.38a23.55,23.55,0,0,0-6-5.17,28.8,28.8,0,0,0,7.72-7.41,33.24,33.24,0,0,0,6.48-19.84,38.28,38.28,0,0,0-3.13-16.26,26.15,26.15,0,0,0-9-10.74,36.05,36.05,0,0,0-12.63-5.24A74.6,74.6,0,0,0,822,244.82H767.17c-2.24,0-5.11,1.94-5.11,4.34V356.59h0v4.71h16.08v-4.71h0V315.11h43.75c5.1,0,9.3-.2,12.47.51,2.76.63,4.95,1.37,6.48,2.74a11.51,11.51,0,0,1,3.27,5.37,40.81,40.81,0,0,1,1.38,10.8c.2,9.15.53,15.61,1,19.49a25.72,25.72,0,0,0,1.81,7.27h16.63a14.36,14.36,0,0,1-1.92-3.21c-.42-.81-1.18-2.81-1.64-7.53m-16.81-60.84a16.72,16.72,0,0,1-6.83,6.23,26.55,26.55,0,0,1-8.35,2.59,69.7,69.7,0,0,1-8.55.51h-42.7V258.87h44.5a48.65,48.65,0,0,1,10.32,1.44,23.39,23.39,0,0,1,7.8,3.33,13.82,13.82,0,0,1,4.78,5.49,19.92,19.92,0,0,1,1.75,8.92c0,5-.91,8.9-2.72,11.66"/><path class="cls-2" d="M155.37,244.8a8,8,0,0,0-7.69,6.41l-.14.1-27.41,86.28L90.29,249.87c-.59-1.71-2.82-5.05-8.24-5.05H80.53c-5.1,0-7.47,3.26-8,5L42.53,337.58,15.28,251.16l-.09-.15a7.84,7.84,0,0,0-7.47-6.21c-4.26,0-7.72,3.71-7.72,8.3a8.64,8.64,0,0,0,.4,2.61v.36L34,361.3H50.54l30.77-89.83,30.81,89.83h16.7L163.62,256v0c0-.89-.18-1.86-.18-2.87a8.31,8.31,0,0,0-8.07-8.3"/><path class="cls-2" d="M246.18,251.54a10,10,0,0,0-9.21-6.71,9.88,9.88,0,0,0-8.95,6l-.39.45-48.83,110h16.73l14.28-34.14h54.08l14.28,34.14h17l-48.7-109.45Zm-29.83,63.57,20.5-46.43,20.49,46.43Z"/><path class="cls-2" d="M681.43,251.54a9.67,9.67,0,0,0-18.17-.66l-.38.45-48.82,110h16.71l14.28-34.14h54.09l14.28,34.14h17L681.71,251.85Zm-29.82,63.57,20.49-46.43,20.5,46.43Z"/><path class="cls-2" d="M958.81,251.85l-.28-.31a9.66,9.66,0,0,0-18.16-.66l-.38.45-48.83,110h16.72l14.28-34.14h54.07l14.29,34.14h17ZM928.7,315.11l20.5-46.43,20.5,46.43Z"/><path class="cls-2" d="M572.81,245c-6.62,0-8.83,5.58-9.69,7.13l-46.44,90-46-90c0-.07-2.67-7.09-9.9-7.09-5.83,0-12,5-12,11.24,0,.72,0,1.5,0,2.18V361.3h16.08V275.45l44.39,85.85h14.84l43.2-85.85v80.92h0v4.93h16.06V257.43c0-2.19-.09-12.41-10.51-12.41"/><path class="cls-2" d="M406.42,244.8a7.69,7.69,0,0,0-6.84,4.43L361.16,300l-39-51.94-.24-.1a7.55,7.55,0,0,0-6.07-3.17c-4.26,0-7.72,3.71-7.72,8.3a8.28,8.28,0,0,0,2.11,6.06l42.16,55.94v42h0v4.15h16.07v-4.15h0v-42l44-56.44v-.24a8.53,8.53,0,0,0,1.74-5.32,8,8,0,0,0-7.75-8.3"/></g></g></svg>