<svg xmlns="http://www.w3.org/2000/svg" viewBox="0 0 958.49 89.37"><defs><style>.cls-1{fill:#473729;}.cls-2{fill:#ed8b00;fill-rule:evenodd;}</style></defs><g id="Capa_2" data-name="Capa 2"><g id="Capa_1-2" data-name="Capa 1"><path class="cls-1" d="M715.14,62h36.47l9.63,23.5h10.64c.1-2,.12-1.84,0-1.72s-.11.13-.21-.09l-31.86-71.7-.19-.15a6.52,6.52,0,0,0-12.25-.42l-.25.31L695,83.75c-.09.21-.16.13-.2,0s-.07-.3,0,1.65h10.66L715.14,62m18.23-40.71,13.82,31.32H719.56l13.81-31.32"/><path class="cls-1" d="M901.66,62h36.47l9.63,23.5H958.4c.1-2,.12-1.84,0-1.72s-.11.13-.2-.09l-31.87-71.7-.18-.15a6.53,6.53,0,0,0-12.26-.42l-.25.31L881.55,83.75c-.1.21-.16.13-.2,0s-.07-.3,0,1.65H892L901.66,62M919.9,21.24l13.81,31.32H906.07L919.9,21.24"/><path class="cls-1" d="M803.38,85.09V52.55h30.45a34.71,34.71,0,0,1,8.4,1.42,9.83,9.83,0,0,1,4.36,2.39,8.72,8.72,0,0,1,2.23,3.88,29.74,29.74,0,0,1,.92,7.42c.13,6.17.36,10.41.68,13,.27,2.23.66,1.82,1.22,4.78H861.8c.11-2,.12-1.9,0-1.82s-.14.07-.26-.15a14,14,0,0,1-1.1-5c-.25-2.75-.45-7.54-.59-14.26a19.2,19.2,0,0,0-4.29-12.38,15.61,15.61,0,0,0-4.08-3.47,19.22,19.22,0,0,0,5.22-5A22.49,22.49,0,0,0,861.08,30a25.94,25.94,0,0,0-2.11-11,17.81,17.81,0,0,0-6.05-7.23c-2.44-1.65-5.3-3.7-8.52-4.4-3.07-.67-6.6-1.86-10.48-1.86h-37c-1.52,0-3,3-3,4.65V85.09l-.06.36h9.93l-.46-.36m0-67.78h31a33.65,33.65,0,0,1,7,.7,15.82,15.82,0,0,1,5.26,2.11,9.24,9.24,0,0,1,3.21,3.64,13.3,13.3,0,0,1,1.18,6c0,3.36-.61,6-1.83,7.86a11.38,11.38,0,0,1-4.6,4.19,17.16,17.16,0,0,1-5.63,1.39,48.3,48.3,0,0,1-5.77,0H803.38V17.31"/><path class="cls-1" d="M334.42,24.88,355.2,85.45h11.26l23.41-70.62h0c0-.61-.11-1.26-.11-2a5.58,5.58,0,0,0-5.42-5.58,5.4,5.4,0,0,0-5.16,4.31l-.1.08L360.6,69.86,339.94,8.36c-.39-1.15-1.43-2.79-2.57-2.79h-5.88c-1.16,0-2.17,1.63-2.58,2.79L308.27,69.41,289.88,11.35h0a5.25,5.25,0,0,0-5-4.12,5.43,5.43,0,0,0-5.21,5.61,5.7,5.7,0,0,0,.27,1.77v.07l22.62,70.76h11.18l20.75-60.57"/><path class="cls-1" d="M421.07,62h36.47l9.64,23.5h10.64c.1-2,.12-1.84,0-1.72s-.11.13-.2-.09l-31.87-71.7-.18-.15a6.53,6.53,0,0,0-12.26-.42l-.25.31L401,83.75c-.09.21-.16.13-.19,0s-.07-.3,0,1.65h10.65L421.07,62m18.24-40.71,13.81,31.32H425.49l13.82-31.32"/><path class="cls-1" d="M594.27,85.09V28L623,85.45h10L662.4,28V85.09l.27.36h9.93l1.55-.36V15.81h0c0-.32-.69-.63-.69-1a7.5,7.5,0,0,0-7.29-7.41,7.2,7.2,0,0,0-6.66,4.79h-.1L628.05,72.93,597,12.22l-.13-.11a7.14,7.14,0,0,0-6.56-4.67,7.73,7.73,0,0,0-7.52,7.63c0,.48-.29,1-.29,1.41V85.09l.86.36h9.92l1-.36"/><path class="cls-1" d="M528.49,85.09V54.68l29.44-38-.11-.16a5.74,5.74,0,0,0,1.12-3.6,5.44,5.44,0,0,0-5.25-5.58,5.21,5.21,0,0,0-4.63,3L523.15,44.52l-26.31-35-.17-.07a5.08,5.08,0,0,0-4.09-2.13,5.4,5.4,0,0,0-5.2,5.58c0,1.62.15,3.07,1.17,4.09l28.19,37.72V85.09l1,.36h9.93l.79-.36"/><path class="cls-2" d="M96.44,28.38s26.1,30,26.65,30.57a1.5,1.5,0,0,0,2.5-.1c.68-.76,26.56-30.45,26.56-30.45h0a3.27,3.27,0,0,0,.09-4.25l-.11-.14c-3.85-4.21-13.46-12.81-27.68-12.81h-.28C110,11.2,100.37,19.78,96.51,24l-.18.25a3.25,3.25,0,0,0,.14,4.12Z"/><path class="cls-2" d="M247.36,12.12C242.62,7.85,231.39,0,212.86,0,187.39,0,171,19.36,171,19.36L130.29,65.93c-5.29,4.14-9.54,2-11.48.55L77.61,19.36S61.22,0,35.75,0C17.08,0,5.82,8,1.13,12.22l-.28.33A3.36,3.36,0,0,0,0,14.79a3.41,3.41,0,0,0,1,2.42H1l58.82,59A44.08,44.08,0,0,0,91,89.37a41.26,41.26,0,0,0,27.54-10.5v0s4.49-4.93,10.85-.63a41.26,41.26,0,0,0,28.18,11.08,44.11,44.11,0,0,0,31.2-13.15L247.44,17.4a3.38,3.38,0,0,0-.08-5.28"/></g></g></svg>