<?xml version="1.0" encoding="UTF-8"?><svg xmlns="http://www.w3.org/2000/svg" viewBox="0 0 66.13 67.67"><defs><style>.d{fill:#fff;}</style></defs><g id="a"/><g id="b"><g id="c"><g><path class="d" d="M33.07,67.67c-13.97,0-26.49-8.83-31.16-21.98-1.27-3.54-1.91-7.27-1.91-11.09,0-4.24,.79-8.36,2.35-12.26l.93,.37c-1.51,3.78-2.27,7.78-2.27,11.88,0,3.7,.62,7.32,1.85,10.75,4.53,12.75,16.67,21.32,30.22,21.32s25.68-8.57,30.22-21.32c1.22-3.44,1.84-7.06,1.84-10.75,0-4.11-.76-8.11-2.27-11.88l.93-.37c1.56,3.9,2.35,8.02,2.35,12.26,0,3.81-.64,7.54-1.9,11.09-4.68,13.15-17.2,21.98-31.16,21.98Z"/><path class="d" d="M52.69,54.89l-.71-.71c5.25-5.23,8.14-12.18,8.14-19.57,0-15.23-12.39-27.62-27.62-27.62S4.88,19.38,4.88,34.61c0,7.39,2.89,14.34,8.14,19.57l-.71,.71c-5.44-5.42-8.43-12.62-8.43-20.28,0-15.78,12.84-28.62,28.62-28.62s28.62,12.84,28.62,28.62c0,7.66-2.99,14.86-8.43,20.28Z"/><g><path class="d" d="M3.53,18.94l.79-1.4,.31,.18-.79,1.4,1.49,.84-.2,.34-3.25-1.84,1.12-1.98,.31,.18-.92,1.63,1.14,.65Z"/><path class="d" d="M3.7,13.64l.18,.92-.2,.28-.25-.83,.26-.37Zm1.68,3.48l-.79-.56c-.4-.28-.63-.59-.68-.91-.05-.32,.04-.65,.26-.97,.23-.32,.5-.51,.82-.57,.32-.06,.68,.05,1.09,.34l.79,.56c.4,.28,.63,.59,.68,.91,.05,.32-.03,.65-.26,.97-.23,.32-.5,.52-.82,.57s-.68-.05-1.09-.34Zm.48-2.34c-.59-.42-1.06-.38-1.4,.1-.17,.24-.23,.48-.18,.7,.05,.22,.24,.44,.55,.66l.8,.56c.3,.21,.56,.3,.78,.27,.22-.03,.42-.17,.59-.41,.34-.49,.23-.93-.34-1.33l-.8-.56Z"/><path class="d" d="M7.44,13.9l1.24,1.08-.26,.3-2.82-2.45,.91-1.05c.23-.26,.48-.41,.75-.44,.27-.03,.53,.06,.78,.28,.2,.18,.32,.37,.36,.59,.04,.22,0,.44-.13,.67l1.85,.44-.3,.34-1.79-.44-.59,.68Zm.37-.95c.16-.18,.24-.36,.23-.54,0-.18-.09-.34-.26-.49-.17-.15-.35-.22-.52-.19s-.34,.13-.5,.31l-.63,.72,1.06,.92,.63-.72Z"/><path class="d" d="M12.88,10.75l-.29,.27-1.97-2.16,.69,2.32-.22,.2-2.25-.89,1.97,2.16-.29,.27-2.52-2.76,.29-.27,2.59,1.04-.8-2.67,.29-.27,2.52,2.76Z"/><path class="d" d="M13.27,9.73c-.2-.09-.38-.23-.52-.43l-1.47-2.04,.33-.23,1.45,2.02c.17,.23,.36,.37,.59,.41s.45-.02,.67-.17c.22-.16,.34-.35,.38-.58,.03-.23-.03-.46-.2-.69l-1.45-2.02,.32-.23,1.47,2.04c.14,.2,.22,.41,.25,.63,.02,.22-.02,.43-.11,.63-.1,.2-.25,.37-.44,.51-.2,.14-.41,.23-.63,.26-.22,.03-.43,0-.63-.09Z"/><path class="d" d="M14.67,4.95l1.7,2.92,1.61-.93,.18,.31-1.95,1.13-1.87-3.23,.34-.2Z"/><path class="d" d="M18.54,6.07l.09,.95-.38,.17-.32-3.96,.3-.14,2.79,2.82-.38,.17-.66-.68-1.44,.66Zm-.24-2.4l.2,2.05,1.23-.57-1.43-1.48Z"/><path class="d" d="M20.81,4.88l.37-.13c.21,.45,.57,.59,1.08,.41,.27-.09,.45-.22,.55-.38,.1-.16,.11-.35,.04-.56-.07-.19-.17-.32-.32-.38-.14-.06-.33-.07-.57-.03l-.42,.07c-.3,.05-.56,.03-.76-.07-.21-.09-.35-.28-.45-.55-.11-.31-.09-.59,.06-.83s.39-.43,.73-.55c.31-.11,.6-.12,.85-.02,.26,.09,.46,.3,.61,.62l-.37,.13c-.19-.43-.52-.56-.99-.4-.24,.08-.41,.21-.5,.37-.1,.16-.11,.34-.04,.54,.06,.17,.16,.29,.3,.35,.14,.06,.32,.07,.54,.04l.43-.07c.31-.05,.58-.03,.79,.07s.36,.29,.46,.57c.11,.32,.09,.61-.06,.85-.15,.25-.42,.44-.79,.57-.35,.12-.66,.13-.92,.03-.26-.1-.46-.32-.61-.65Z"/><path class="d" d="M27.48,3.09c.06,.31,.01,.58-.15,.8-.16,.22-.42,.36-.76,.43l-1.38,.28-.74-3.66,1.34-.27c.34-.07,.63-.04,.85,.09,.22,.13,.37,.35,.43,.66,.04,.19,.02,.37-.05,.53-.07,.17-.19,.3-.35,.39,.22,.02,.39,.1,.53,.23,.13,.13,.22,.31,.27,.53Zm-2.31-.62l.91-.18c.23-.05,.4-.13,.51-.27,.11-.13,.14-.3,.1-.51-.04-.21-.14-.36-.29-.44-.15-.08-.34-.1-.57-.05l-.92,.18,.26,1.27Zm1.91,.67c-.04-.22-.14-.37-.3-.46-.16-.09-.36-.11-.6-.06l-.95,.19,.27,1.35,.94-.19c.24-.05,.42-.15,.53-.29,.11-.14,.14-.33,.1-.55Z"/><path class="d" d="M28.38,.26l.46,3.71-.39,.05-.46-3.71,.39-.05Z"/><path class="d" d="M29.53,2.48l-.05-.97c-.02-.49,.07-.86,.3-1.1,.22-.24,.53-.37,.93-.39,.39-.02,.71,.08,.95,.3s.38,.57,.4,1.07l.05,.97c.02,.49-.07,.86-.3,1.1-.22,.24-.53,.37-.92,.39-.4,.02-.72-.08-.96-.29-.24-.22-.38-.57-.4-1.07Zm2.14-1.06c-.04-.72-.35-1.07-.95-1.04-.3,.02-.52,.11-.66,.29s-.2,.46-.18,.84l.05,.97c.02,.36,.11,.62,.27,.78,.16,.16,.39,.23,.69,.21,.59-.03,.87-.39,.84-1.09l-.05-.97Z"/><path class="d" d="M34.33,.06c.4,.02,.7,.15,.92,.39,.22,.24,.32,.61,.29,1.1l-.04,.88c-.03,.49-.16,.85-.4,1.07-.24,.22-.56,.32-.96,.3l-1.28-.06,.19-3.73,1.28,.06Zm.77,2.37l.04-.88c.02-.38-.04-.66-.19-.84-.14-.18-.36-.28-.64-.29l-.88-.04-.15,3.01,.88,.04c.59,.03,.9-.3,.94-1Z"/><path class="d" d="M36.82,1.94l1.59,.24-.05,.35-1.58-.24-.2,1.35,1.85,.28-.05,.35-2.24-.34,.56-3.7,2.24,.34-.05,.35-1.85-.28-.19,1.29Z"/><path class="d" d="M39.21,3.04l.24-.94c.12-.48,.32-.8,.61-.97,.29-.16,.62-.2,1.01-.1,.25,.06,.45,.16,.62,.3,.16,.14,.27,.3,.33,.49s.06,.4,0,.61v.02l-.39-.1v-.02c.06-.23,.03-.43-.08-.61-.12-.17-.31-.29-.57-.36-.29-.07-.53-.05-.72,.08s-.34,.38-.43,.75l-.24,.94c-.17,.68,.04,1.09,.64,1.24,.28,.07,.51,.05,.69-.07s.32-.33,.4-.66l.07-.28-.87-.22,.08-.33,1.25,.32-.14,.54c-.12,.48-.32,.79-.6,.95-.28,.16-.61,.19-.99,.1-.38-.1-.66-.29-.84-.57-.17-.28-.2-.66-.08-1.14Z"/><path class="d" d="M42.98,3.83l-.57,1.54-.37-.14,1.3-3.51,1.3,.48c.33,.12,.55,.3,.68,.54,.12,.24,.13,.52,.01,.83-.09,.25-.24,.43-.43,.55-.19,.11-.42,.15-.67,.12l.25,1.88-.43-.16-.22-1.83-.84-.31Zm1.02,.01c.23,.08,.42,.09,.59,.02,.17-.07,.29-.21,.37-.42,.08-.22,.08-.4,0-.56s-.24-.28-.47-.36l-.9-.33-.48,1.31,.9,.33Z"/><path class="d" d="M45.66,5.69l-.67,.67-.38-.18,2.85-2.77,.3,.14-.41,3.95-.37-.18,.11-.95-1.43-.69Zm1.71-1.71l-1.46,1.46,1.22,.59,.24-2.05Z"/><path class="d" d="M50.73,5.2c.34,.21,.55,.47,.62,.79,.08,.32-.01,.69-.27,1.11l-.46,.75c-.26,.42-.55,.67-.87,.74-.32,.07-.65,0-.99-.21l-1.09-.67,1.97-3.18,1.09,.67Zm-.47,2.45l.46-.75c.2-.32,.28-.6,.24-.83-.04-.23-.18-.42-.42-.57l-.75-.47-1.59,2.57,.75,.47c.5,.31,.94,.17,1.31-.43Z"/><path class="d" d="M51.25,8.96l-.8,.52-.33-.26,3.36-2.13,.26,.2-1.21,3.79-.33-.25,.3-.9-1.26-.97Zm2.02-1.33l-1.73,1.13,1.08,.83,.65-1.96Z"/><path class="d" d="M55.34,12.33c-.22,.23-.47,.35-.74,.34-.27,0-.53-.13-.79-.37l-1.02-.96,2.57-2.72,1,.94c.25,.24,.39,.49,.42,.75,.02,.26-.07,.5-.29,.73-.13,.14-.29,.23-.46,.27s-.35,.02-.52-.06c.11,.19,.15,.38,.12,.57-.03,.19-.12,.36-.27,.52Zm-.27-.29c.15-.16,.22-.33,.2-.51-.02-.18-.12-.35-.3-.52l-.7-.66-.95,1,.7,.66c.18,.17,.36,.26,.54,.27,.18,0,.35-.07,.51-.24Zm-.56-1.95l.68,.64c.17,.16,.34,.25,.51,.26,.17,.01,.33-.06,.48-.21,.15-.16,.21-.32,.2-.49-.02-.17-.11-.34-.29-.5l-.68-.64-.89,.94Z"/><path class="d" d="M58.2,11.44l-2.55,2.22,1.22,1.41-.27,.23-1.48-1.71,2.82-2.45,.26,.3Z"/><path class="d" d="M58.83,14.81l.94,1.3-.29,.21-.94-1.3-1.11,.8,1.1,1.52-.29,.21-1.33-1.84,3.03-2.19,1.33,1.84-.29,.21-1.1-1.52-1.05,.76Z"/><path class="d" d="M59.34,17.29l.2,.34c-.4,.29-.46,.68-.19,1.14,.14,.24,.3,.4,.48,.46,.18,.07,.36,.04,.56-.07,.18-.1,.28-.23,.31-.39,.03-.15,0-.34-.08-.56l-.15-.4c-.11-.29-.14-.54-.09-.76s.2-.4,.45-.55c.28-.17,.56-.2,.83-.11s.5,.3,.68,.61c.17,.29,.23,.56,.19,.83-.04,.27-.2,.51-.48,.72l-.2-.34c.38-.27,.44-.62,.19-1.05-.13-.22-.28-.36-.46-.42-.18-.06-.35-.04-.54,.07-.16,.09-.25,.21-.29,.36-.03,.15,0,.33,.07,.54l.15,.41c.11,.3,.14,.56,.08,.79s-.21,.41-.47,.56c-.29,.17-.58,.21-.85,.11-.28-.1-.51-.32-.71-.67-.19-.32-.26-.62-.21-.9,.05-.28,.22-.52,.51-.73Z"/></g><g><path class="d" d="M15.91,57.69l.31,.2c-.22,.42-.11,.77,.32,1.06,.22,.15,.43,.21,.61,.19,.18-.02,.33-.12,.45-.3,.11-.16,.14-.32,.11-.46s-.14-.29-.31-.45l-.3-.28c-.22-.2-.35-.4-.39-.61-.05-.21,0-.43,.15-.66,.17-.26,.39-.41,.67-.44s.55,.05,.84,.24c.26,.17,.44,.39,.52,.63,.08,.25,.04,.52-.11,.82l-.31-.2c.21-.39,.12-.72-.28-.98-.21-.13-.4-.19-.57-.17-.18,.02-.32,.12-.43,.28-.1,.15-.13,.29-.09,.43s.13,.28,.29,.43l.31,.29c.22,.21,.36,.42,.4,.64,.05,.22,0,.44-.16,.68-.18,.27-.41,.42-.68,.45-.28,.03-.58-.06-.89-.27-.3-.2-.49-.42-.56-.68s-.03-.54,.13-.84Z"/><path class="d" d="M18.51,59.88c-.01-.21,.03-.42,.14-.63l1.09-2.14,.34,.17-1.07,2.12c-.12,.24-.15,.47-.09,.68,.06,.21,.21,.38,.44,.49,.23,.12,.45,.14,.66,.06s.38-.23,.5-.47l1.07-2.12,.34,.17-1.08,2.14c-.11,.21-.25,.37-.42,.48-.18,.11-.37,.17-.58,.18-.21,0-.42-.05-.63-.15s-.37-.25-.49-.42c-.12-.17-.19-.37-.2-.58Z"/><path class="d" d="M21.41,60.79l.35,.13c-.12,.46,.06,.78,.55,.96,.25,.09,.46,.11,.63,.05,.17-.06,.29-.19,.37-.39,.07-.18,.07-.34,0-.47-.07-.13-.2-.25-.4-.37l-.35-.2c-.25-.15-.43-.32-.52-.51-.09-.19-.09-.42,0-.67,.11-.29,.29-.49,.55-.58,.26-.09,.55-.08,.87,.04,.3,.11,.51,.28,.64,.5s.16,.5,.08,.82l-.35-.13c.12-.43-.05-.73-.49-.89-.23-.08-.43-.1-.59-.04-.17,.06-.29,.18-.36,.37-.06,.16-.06,.31,0,.44s.19,.25,.38,.36l.36,.21c.26,.15,.44,.33,.54,.53,.09,.2,.09,.43,0,.7-.11,.3-.3,.5-.57,.59-.26,.09-.57,.07-.93-.06-.33-.12-.57-.3-.7-.54s-.15-.52-.06-.85Z"/><path class="d" d="M25.94,59.96l-.83,3.11-.36-.1,.83-3.11-.98-.26,.09-.33,2.33,.62-.09,.33-.98-.26Z"/><path class="d" d="M27.43,61.57l1.51,.24-.05,.34-1.51-.24-.21,1.28,1.76,.29-.05,.34-2.13-.35,.57-3.52,2.14,.35-.05,.34-1.76-.29-.2,1.22Z"/><path class="d" d="M32.36,64.04l-.38-.02-1.71-2.95-.14,2.87-.38-.02,.17-3.56,.38,.02,1.71,2.94,.14-2.86,.38,.02-.17,3.56Z"/><path class="d" d="M34.22,60.73l.19,3.22-.37,.02-.19-3.22-1.02,.06-.02-.34,2.4-.14,.02,.34-1.02,.06Z"/><path class="d" d="M36.26,62.92l-.16,.89-.39,.06,.72-3.72,.31-.05,1.84,3.31-.39,.06-.43-.8-1.49,.24Zm.4-2.27l-.35,1.94,1.28-.2-.93-1.73Z"/><path class="d" d="M41.32,61.67c.08,.3,.05,.55-.09,.77-.14,.22-.37,.37-.69,.46l-1.29,.36-.95-3.43,1.26-.35c.32-.09,.59-.08,.81,.03,.22,.11,.37,.31,.45,.6,.05,.18,.04,.35,0,.51-.05,.17-.16,.3-.31,.4,.21,0,.38,.07,.52,.18,.14,.12,.23,.28,.29,.48Zm-2.23-.43l.86-.24c.22-.06,.37-.16,.47-.29,.1-.13,.12-.3,.06-.5-.05-.2-.16-.33-.3-.4-.15-.07-.33-.07-.55-.01l-.86,.24,.33,1.19Zm1.86,.51c-.06-.21-.16-.34-.32-.42-.15-.07-.34-.08-.57-.01l-.89,.24,.35,1.27,.88-.24c.23-.06,.39-.17,.49-.31s.12-.32,.06-.53Z"/><path class="d" d="M41.52,58.84l1.19,2.99,1.65-.66,.13,.32-2,.8-1.32-3.31,.35-.14Z"/><path class="d" d="M44.62,59.22l1.36-.7,.16,.3-1.36,.7,.6,1.15,1.58-.82,.16,.3-1.92,1-1.64-3.16,1.92-1,.16,.3-1.58,.82,.57,1.1Z"/><path class="d" d="M47.1,59l.31-.2c.3,.37,.66,.41,1.09,.12,.22-.15,.36-.31,.42-.48s.02-.35-.1-.53c-.11-.16-.24-.26-.38-.28-.15-.02-.32,.01-.53,.1l-.37,.17c-.27,.12-.51,.16-.72,.12-.21-.04-.39-.17-.54-.4-.17-.26-.22-.52-.14-.78,.08-.26,.26-.49,.55-.68,.26-.17,.52-.25,.78-.22,.26,.03,.49,.17,.71,.42l-.31,.2c-.28-.35-.61-.39-1.01-.13-.2,.13-.33,.29-.38,.46s-.02,.34,.09,.51c.1,.15,.21,.23,.36,.26s.31,0,.51-.09l.38-.17c.28-.12,.53-.16,.74-.12s.4,.18,.56,.42c.18,.27,.22,.54,.14,.81-.08,.27-.28,.5-.6,.71-.3,.2-.58,.28-.85,.24s-.5-.19-.72-.45Z"/></g><g><path class="d" d="M22.33,53.32c-.17,.27-.39,.43-.66,.48-.27,.05-.55-.02-.84-.2l-.76-.48-.78,1.24-.32-.2,1.9-3.01,1.08,.68c.29,.19,.48,.41,.55,.67,.07,.26,.02,.54-.17,.82Zm-.32-.2c.13-.21,.17-.4,.12-.57-.05-.17-.18-.32-.39-.46l-.74-.46-.75,1.19,.74,.46c.21,.13,.4,.19,.58,.16,.17-.02,.32-.13,.44-.33Z"/><path class="d" d="M22.75,54.54l-.64,1.43-.34-.15,1.45-3.25,1.21,.54c.31,.14,.51,.32,.61,.56,.1,.24,.09,.5-.04,.79-.1,.23-.25,.4-.44,.49-.19,.1-.41,.12-.65,.07l.12,1.8-.4-.18-.1-1.76-.78-.35Zm.97,.08c.21,.09,.4,.11,.56,.06,.16-.05,.29-.18,.38-.37,.09-.2,.1-.38,.03-.53-.07-.15-.21-.28-.42-.37l-.83-.37-.54,1.22,.83,.37Z"/><path class="d" d="M25.17,55.84l.25-.89c.13-.45,.33-.75,.6-.9,.27-.15,.59-.17,.96-.07,.36,.1,.62,.29,.77,.56,.15,.27,.17,.63,.04,1.08l-.25,.89c-.13,.45-.33,.75-.6,.9s-.59,.17-.95,.07c-.36-.1-.62-.29-.78-.56-.15-.27-.17-.63-.04-1.08Zm2.26-.3c.19-.66,0-1.07-.54-1.23-.27-.08-.5-.06-.69,.06-.18,.12-.33,.35-.42,.7l-.25,.89c-.09,.33-.09,.6,0,.79,.1,.19,.28,.33,.55,.4,.55,.15,.91-.09,1.09-.73l.25-.89Z"/><path class="d" d="M29.9,54.62c.38,.05,.66,.19,.85,.44,.19,.24,.26,.6,.2,1.07l-.11,.83c-.06,.47-.21,.79-.46,.98-.25,.19-.56,.26-.93,.21l-1.21-.15,.45-3.53,1.21,.16Zm.56,2.31l.11-.83c.05-.36,0-.63-.12-.81-.12-.18-.32-.29-.59-.33l-.83-.11-.37,2.85,.83,.11c.56,.07,.88-.22,.97-.88Z"/><path class="d" d="M31.89,57.82c-.11-.18-.17-.39-.17-.62l-.04-2.4h.38l.04,2.36c0,.27,.09,.49,.24,.64,.16,.16,.36,.23,.62,.23,.25,0,.46-.09,.61-.25,.15-.16,.23-.38,.22-.65l-.04-2.37h.38l.04,2.39c0,.23-.04,.44-.15,.62s-.24,.33-.43,.43c-.18,.1-.39,.16-.63,.16-.23,0-.44-.04-.63-.14s-.34-.23-.45-.42Z"/><path class="d" d="M35.01,56.92l-.15-.91c-.08-.47-.02-.82,.17-1.08s.47-.41,.85-.47c.24-.04,.46-.03,.65,.03,.2,.06,.36,.16,.48,.31,.13,.15,.21,.33,.24,.54v.02l-.37,.06v-.02c-.04-.23-.14-.4-.31-.5-.17-.11-.38-.14-.64-.1-.28,.05-.48,.16-.6,.35-.12,.18-.15,.46-.09,.82l.15,.92c.11,.66,.46,.94,1.04,.84,.25-.04,.44-.14,.57-.3,.12-.16,.17-.35,.13-.57v-.02l.36-.06v.02c.06,.33,0,.61-.19,.84s-.45,.37-.82,.44c-.38,.06-.7,0-.96-.17-.26-.18-.43-.5-.51-.97Z"/><path class="d" d="M38.67,54.19l.94,3.08-.36,.11-.94-3.08-.97,.3-.1-.33,2.3-.7,.1,.33-.97,.3Z"/><path class="d" d="M40.67,55.53l-.38-.84c-.19-.43-.24-.79-.12-1.08,.11-.29,.34-.52,.69-.67,.34-.16,.66-.18,.95-.07,.29,.11,.54,.38,.73,.8l.38,.84c.2,.43,.24,.79,.12,1.08-.11,.29-.34,.51-.68,.67-.34,.16-.66,.18-.96,.07-.29-.11-.54-.38-.73-.8Zm1.53-1.69c-.29-.63-.69-.83-1.21-.59-.26,.12-.42,.28-.49,.49-.06,.21-.02,.48,.13,.81l.38,.85c.14,.32,.32,.52,.51,.6,.2,.08,.43,.07,.68-.05,.52-.24,.64-.65,.36-1.26l-.38-.85Z"/><path class="d" d="M43.62,54.48l.31-.2c.29,.37,.66,.42,1.09,.14,.23-.14,.37-.3,.43-.47s.03-.35-.09-.53c-.11-.17-.23-.26-.38-.29-.15-.03-.32,0-.53,.09l-.38,.16c-.27,.11-.51,.15-.72,.11s-.39-.18-.53-.41c-.17-.26-.21-.53-.13-.79,.08-.26,.27-.48,.56-.67,.27-.17,.53-.24,.79-.21s.49,.18,.7,.44l-.31,.2c-.27-.35-.61-.4-1.01-.15-.21,.13-.34,.28-.39,.45-.05,.17-.03,.34,.08,.51,.09,.15,.21,.24,.35,.26,.14,.03,.31,0,.51-.08l.39-.16c.28-.12,.53-.15,.75-.11s.4,.19,.55,.43c.17,.27,.21,.54,.13,.81-.09,.27-.29,.5-.61,.7-.3,.19-.59,.27-.85,.23s-.5-.2-.71-.47Z"/></g><path class="d" d="M50.93,44.39c-2.55,0-3.85-1.7-5-3.2-1.11-1.44-2.15-2.81-4.21-2.81s-3.1,1.36-4.21,2.81c-1.15,1.5-2.45,3.2-5,3.2s-3.85-1.7-5-3.2c-1.11-1.44-2.15-2.81-4.21-2.81s-3.1,1.36-4.21,2.81c-1.15,1.5-2.45,3.2-5,3.2s-3.85-1.7-5-3.2c-1.11-1.44-2.15-2.81-4.21-2.81v-1c2.55,0,3.85,1.7,5,3.2,1.11,1.44,2.15,2.81,4.21,2.81s3.1-1.36,4.21-2.81c1.15-1.5,2.45-3.2,5-3.2s3.85,1.7,5,3.2c1.11,1.44,2.15,2.81,4.21,2.81s3.1-1.36,4.21-2.81c1.15-1.5,2.45-3.2,5-3.2s3.85,1.7,5,3.2c1.11,1.44,2.15,2.81,4.21,2.81s3.1-1.36,4.21-2.81c1.15-1.5,2.45-3.2,5-3.2v1c-2.06,0-3.1,1.36-4.21,2.81-1.15,1.5-2.45,3.2-5,3.2Z"/><path class="d" d="M32.5,37.1c-3.26,0-5.91-2.65-5.91-5.91s5.27-11.15,5.49-11.49l.42-.64,.42,.64c.22,.34,5.49,8.39,5.49,11.49,0,3.26-2.65,5.91-5.91,5.91Zm0-16.21c-1.68,2.64-4.91,8.16-4.91,10.3,0,2.71,2.2,4.91,4.91,4.91s4.91-2.2,4.91-4.91c0-2.13-3.23-7.65-4.91-10.3Z"/></g></g></g></svg>