<?xml version="1.0" encoding="UTF-8"?><svg xmlns="http://www.w3.org/2000/svg" viewBox="0 0 66.13 67.65"><defs><style>.d{fill:#fff;}</style></defs><g id="a"/><g id="b"><g id="c"><g><path class="d" d="M53.25,54.87l-.71-.71c5.25-5.23,8.14-12.18,8.14-19.57,0-15.23-12.39-27.62-27.62-27.62S5.44,19.36,5.44,34.59c0,7.39,2.89,14.34,8.14,19.57l-.71,.71c-5.44-5.42-8.43-12.62-8.43-20.28,0-15.78,12.84-28.62,28.62-28.62s28.62,12.84,28.62,28.62c0,7.66-2.99,14.86-8.43,20.28Z"/><path class="d" d="M33.06,67.65C14.83,67.65,0,52.82,0,34.59c0-4.97,1.08-9.76,3.21-14.22l.9,.43c-2.06,4.33-3.11,8.97-3.11,13.79,0,17.68,14.38,32.06,32.06,32.06s32.07-14.38,32.07-32.06c0-4.82-1.05-9.46-3.11-13.79l.9-.43c2.13,4.47,3.21,9.25,3.21,14.22,0,18.23-14.83,33.06-33.07,33.06Z"/><g><path class="d" d="M8.37,16.04l-.22,.33-3.58-.11,2.49,1.71-.22,.33-3.08-2.12,.22-.33,3.57,.1-2.48-1.7,.22-.33,3.08,2.12Z"/><path class="d" d="M7.73,14.6l-.73-.63c-.38-.32-.57-.65-.59-.97s.1-.64,.36-.94c.26-.3,.55-.46,.87-.49,.33-.03,.67,.12,1.05,.44l.74,.63c.38,.32,.57,.65,.59,.97,.02,.33-.1,.64-.35,.94-.26,.3-.55,.47-.88,.49-.33,.03-.68-.12-1.05-.44Zm.71-2.28c-.55-.47-1.02-.48-1.41-.03-.2,.23-.28,.45-.25,.68s.19,.46,.48,.71l.74,.63c.28,.24,.53,.35,.75,.34s.43-.12,.63-.35c.39-.45,.32-.9-.21-1.36l-.74-.63Z"/><path class="d" d="M10.31,9.01l2.26,2.51-.29,.26-2.26-2.51-.79,.71-.24-.27,1.88-1.69,.24,.27-.79,.71Z"/><path class="d" d="M12.73,8.67l1.28-.97,.22,.29-1.28,.97,.82,1.09,1.49-1.13,.21,.29-1.81,1.37-2.25-2.98,1.81-1.37,.22,.29-1.49,1.13,.78,1.04Z"/><path class="d" d="M15.2,8.11l.33-.21c.3,.39,.69,.45,1.15,.16,.24-.15,.39-.31,.45-.49s.03-.36-.09-.56c-.11-.18-.24-.28-.39-.3s-.34,0-.56,.09l-.4,.16c-.28,.12-.54,.15-.76,.1-.22-.05-.41-.19-.56-.44-.17-.28-.21-.56-.12-.83,.09-.27,.29-.5,.6-.69,.28-.18,.56-.25,.83-.21,.27,.03,.51,.19,.73,.47l-.33,.21c-.28-.37-.63-.43-1.05-.17-.22,.14-.36,.29-.41,.47s-.03,.36,.08,.53c.1,.16,.22,.25,.37,.28,.15,.03,.33,0,.54-.08l.41-.16c.3-.12,.56-.15,.78-.1,.23,.05,.42,.2,.57,.45,.18,.29,.22,.57,.12,.85-.1,.28-.31,.52-.65,.73-.32,.2-.62,.27-.9,.23-.28-.04-.53-.21-.74-.5Z"/><path class="d" d="M17.88,3.9l1.51,3.02-.35,.17-1.51-3.02-.95,.48-.16-.32,2.25-1.13,.16,.32-.95,.48Z"/><path class="d" d="M20.31,4.21l1.49-.59,.13,.33-1.49,.59,.5,1.27,1.74-.69,.13,.33-2.11,.84-1.38-3.47,2.11-.84,.13,.33-1.74,.69,.48,1.21Z"/><path class="d" d="M23.47,4.3l-.05,.95-.4,.12,.26-3.97,.32-.09,2.35,3.21-.4,.12-.55-.78-1.52,.44Zm.12-2.42l-.11,2.06,1.31-.38-1.2-1.68Z"/><path class="d" d="M26.89,.55c.39-.07,.72-.01,.99,.17s.45,.52,.54,1.01l.16,.86c.09,.49,.04,.86-.15,1.13s-.48,.44-.87,.51l-1.26,.23-.66-3.67,1.26-.23Zm1.29,2.13l-.16-.87c-.07-.37-.19-.63-.37-.77s-.41-.19-.69-.14l-.87,.16,.54,2.97,.87-.16c.58-.11,.81-.5,.69-1.19Z"/><path class="d" d="M29.34,2.53l-.07-.97c-.04-.49,.05-.86,.27-1.11,.22-.25,.52-.38,.92-.41,.39-.03,.71,.06,.96,.27,.25,.21,.39,.56,.43,1.06l.07,.97c.04,.49-.05,.86-.27,1.11-.22,.25-.52,.38-.92,.41-.4,.03-.72-.06-.97-.27s-.39-.56-.43-1.06Zm2.12-1.11c-.05-.72-.38-1.06-.97-1.02-.3,.02-.52,.12-.66,.31-.14,.18-.19,.46-.17,.85l.07,.97c.03,.36,.12,.62,.29,.78s.4,.22,.69,.2c.59-.04,.87-.41,.82-1.11l-.07-.97Z"/><path class="d" d="M34.37,1.68l1.6,.09-.02,.36-1.6-.09-.08,1.36,1.87,.11-.02,.36-2.26-.13,.22-3.73,2.26,.13-.02,.36-1.87-.11-.08,1.3Z"/><path class="d" d="M39.39,4.35l-.39-.06-1.42-3.28-.48,2.97-.39-.06,.6-3.68,.39,.06,1.42,3.27,.48-2.96,.39,.06-.6,3.69Z"/><path class="d" d="M41.84,4.05l-.57,.76-.4-.12,2.41-3.16,.32,.1,.18,3.98-.4-.12-.03-.95-1.52-.47Zm1.44-1.95l-1.23,1.66,1.3,.41-.07-2.07Z"/><path class="d" d="M46.62,6.84l-.36-.16-.57-3.53-1.2,2.76-.36-.16,1.5-3.42,.36,.16,.57,3.52,1.2-2.75,.36,.16-1.5,3.42Z"/><path class="d" d="M49.45,4.12l-1.76,3.3-.35-.19,1.76-3.3,.35,.19Z"/><path class="d" d="M51.12,9.51l-.33-.21,1.58-2.46-2.06,1.26-.25-.16,.29-2.4-1.58,2.46-.33-.21,2.02-3.14,.33,.21-.34,2.77,2.38-1.46,.33,.21-2.02,3.14Z"/><path class="d" d="M52.55,9.51l-.81,.5-.32-.26,3.42-2.03,.26,.21-1.32,3.76-.32-.26,.33-.9-1.23-1.01Zm2.06-1.27l-1.76,1.08,1.05,.86,.71-1.94Z"/><path class="d" d="M56.94,9.56l-2.37,2.4,1.32,1.31-.25,.25-1.6-1.58,2.62-2.65,.28,.28Z"/><path class="d" d="M57.83,12.87l1.03,1.22-.27,.23-1.03-1.22-1.04,.88,1.21,1.43-.27,.23-1.46-1.73,2.85-2.41,1.46,1.73-.27,.23-1.21-1.43-.99,.84Z"/><path class="d" d="M58.53,15.32l.22,.32c-.38,.32-.41,.71-.1,1.15,.16,.23,.33,.37,.51,.42s.37,.01,.55-.12c.17-.12,.26-.25,.28-.41,.02-.15-.02-.34-.12-.55l-.18-.39c-.13-.28-.18-.53-.14-.75,.04-.22,.17-.42,.4-.58,.27-.19,.54-.24,.82-.17,.28,.08,.52,.26,.73,.56,.19,.27,.27,.54,.25,.82-.02,.27-.16,.52-.43,.76l-.22-.32c.36-.3,.39-.66,.11-1.06-.15-.21-.31-.34-.49-.39-.18-.05-.36-.01-.53,.11-.15,.11-.24,.23-.26,.38-.02,.15,.02,.33,.11,.53l.19,.4c.14,.29,.18,.55,.15,.78s-.18,.43-.42,.6c-.28,.19-.56,.25-.84,.17-.28-.08-.54-.28-.76-.61-.21-.31-.31-.6-.28-.88s.18-.54,.46-.77Z"/></g><g><path class="d" d="M17.18,57.79l.49-.78c.25-.4,.53-.63,.84-.7,.31-.07,.62,0,.95,.21,.2,.13,.36,.28,.47,.45s.16,.36,.16,.55c0,.19-.06,.38-.18,.57h0l-.32-.19h0c.12-.21,.16-.4,.1-.6-.06-.19-.19-.36-.41-.49-.24-.15-.47-.2-.68-.14-.21,.06-.42,.24-.61,.56l-.49,.79c-.35,.56-.28,1,.22,1.31,.22,.14,.43,.19,.62,.15,.2-.03,.35-.15,.48-.34v-.02l.32,.19v.02c-.19,.28-.42,.45-.71,.5-.29,.05-.59-.02-.9-.21-.32-.2-.53-.46-.6-.76s0-.66,.26-1.06Z"/><path class="d" d="M20.46,59.43l-.67,1.41-.34-.16,1.53-3.22,1.2,.57c.3,.14,.5,.33,.6,.57,.1,.24,.08,.5-.06,.79-.11,.23-.26,.39-.45,.48-.19,.09-.41,.11-.65,.06l.08,1.81-.39-.19-.06-1.76-.78-.37Zm.97,.1c.21,.1,.4,.12,.56,.07,.17-.05,.29-.17,.38-.36,.09-.2,.11-.38,.04-.53s-.2-.28-.42-.38l-.83-.39-.57,1.2,.83,.39Z"/><path class="d" d="M22.81,61.6c-.04-.21-.03-.42,.05-.64l.77-2.27,.36,.12-.76,2.24c-.09,.26-.08,.49,.01,.69,.09,.2,.26,.34,.51,.42,.24,.08,.46,.07,.66-.03,.2-.1,.34-.28,.43-.54l.76-2.24,.36,.12-.77,2.27c-.08,.22-.19,.4-.35,.54s-.34,.22-.55,.26c-.21,.03-.42,.02-.64-.06s-.4-.19-.55-.34c-.14-.15-.24-.33-.28-.54Z"/><path class="d" d="M26.61,61.26l1.5,.33-.07,.33-1.5-.33-.28,1.27,1.75,.38-.07,.33-2.12-.46,.76-3.49,2.12,.46-.07,.33-1.75-.38-.26,1.21Z"/><path class="d" d="M29.58,60.21l-.36,3.2,1.76,.2-.04,.34-2.14-.24,.4-3.54,.37,.04Z"/><path class="d" d="M32.78,60.78l-.06,3.22h-.37l.06-3.22-1.02-.02v-.34l2.41,.04v.34l-1.02-.02Z"/><path class="d" d="M35.44,63.9l-.38,.03-.11-1.49-1.21-1.98,.41-.03,.96,1.64,.72-1.76,.41-.03-.91,2.14,.11,1.49Z"/><path class="d" d="M38.12,61.58l.05,.34-1.4,.22-.05-.34,1.4-.22Z"/><path class="d" d="M39.17,61.35l1.48-.37,.08,.33-1.48,.37,.4,1.58-.37,.09-.86-3.45,2.1-.52,.08,.33-1.73,.43,.3,1.21Z"/><path class="d" d="M42.01,60.98l.54,1.47-.35,.13-1.23-3.34,1.24-.46c.31-.12,.59-.12,.83-.03,.24,.1,.41,.3,.52,.6,.09,.24,.1,.46,.03,.66s-.21,.37-.41,.5l1.34,1.21-.41,.15-1.3-1.19-.8,.3Zm.74-.62c.22-.08,.36-.2,.44-.35,.08-.15,.08-.33,0-.53-.08-.21-.19-.34-.35-.4-.16-.06-.34-.05-.56,.03l-.86,.32,.46,1.25,.86-.32Z"/><path class="d" d="M44.73,59.42l1.37-.68,.15,.31-1.37,.68,.58,1.17,1.6-.8,.15,.3-1.94,.97-1.59-3.19,1.94-.97,.15,.3-1.6,.8,.55,1.11Z"/><path class="d" d="M47.23,58.09l1.29-.82,.18,.29-1.29,.82,.7,1.1,1.5-.96,.18,.29-1.82,1.16-1.91-3,1.82-1.16,.18,.29-1.5,.96,.66,1.04Z"/></g><path class="d" d="M42.83,43.72c-.23,.02-.4,.21-.4,.43v.04c.02,.12,.07,.23,.15,.3,.09,.07,.2,.11,.32,.1,1.55-.14,9.28-1.1,9.3-6.93,.03-4.93-3.55-7.24-5.08-8l-.28-.14,.12-.29c.55-1.39,1.86-4.98,2.16-8.34,.17-1.84-.43-3.38-1.65-4.24-1.03-.73-2.38-.85-3.52-.32-1.35,.62-2.22,2.04-2.38,3.88l-.04,.33c-.03,.3-.05,.62-.08,.97l-.06,.79-.52-.6c-1.36-1.55-4-4-6.38-2.88-1.26,.59-1.92,1.61-1.86,2.88,.14,2.79,3.56,6.15,6.8,7.79l.57,.29-.55,.31c-.74,.42-1.34,.88-1.83,1.43l-.18,.21-.24-.14c-3.73-2.21-8.47-2.73-12.78-1.25l-.32,.11-.11-.33c-.65-1.93-2.37-3.3-4.39-3.49-1.37-.14-2.72,.27-3.78,1.15-1.06,.88-1.72,2.12-1.86,3.49-.2,1.99,.81,3.94,2.56,4.96l.29,.16-.17,.29c-1.06,1.9-1.61,3.95-1.61,6.08,0,4.04,1.97,7.81,5.4,10.35,.07,.05,.16,.09,.25,.09h8.84c.77,0,1.47-.4,1.9-1.06l.1-.15h.18c1.92-.03,3.25-.54,4.02-.97l.35-.2,.21,.6c.37,1.07,1.37,1.79,2.5,1.79h7.23c1.24,0,2.25-1.01,2.25-2.26,0-2.26-1.84-4.12-4.12-4.12h-1.18c-.23,0-.43,.2-.43,.43s.2,.43,.43,.43h1.18c1.8,0,3.25,1.46,3.25,3.25,0,.77-.62,1.39-1.38,1.39h-7.23c-.76,0-1.43-.49-1.68-1.2l-1.34-3.85c-.07-.23-.32-.35-.55-.27-.23,.07-.34,.32-.27,.55l.84,2.41-.23,.14c-.5,.33-1.61,.89-3.45,.99l-.34,.02v-.34c-.09-1.98-1.57-3.62-3.52-3.91-.23-.03-.45,.13-.49,.37-.02,.12,0,.23,.08,.33,.07,.09,.17,.15,.29,.16,1.58,.23,2.78,1.62,2.78,3.21,0,.77-.62,1.39-1.38,1.39h-8.7l-.09-.07c-3.08-2.36-4.84-5.83-4.84-9.5,0-6.84,6.07-12.4,13.54-12.4,2.85,0,5.58,.8,7.89,2.32,.19,.13,.46,.08,.59-.11,1.52-2.17,4.54-2.7,4.88-2.75,.14-.03,.25-.1,.32-.21,.06-.11,.08-.24,.05-.36-1.2-3.56-.92-6.61-.73-8.62l.03-.33c.14-1.55,.81-2.68,1.9-3.18,.86-.4,1.88-.31,2.64,.23,.97,.69,1.43,1.91,1.3,3.47-.35,3.92-2.17,8.27-2.38,8.75-.05,.12-.05,.24,0,.35,.05,.12,.14,.2,.25,.23,.22,.08,5.23,1.88,5.21,7.49-.02,5.08-7.09,5.95-8.51,6.07Zm-19.84-12.84c-2.26,1.05-4.19,2.61-5.57,4.52l-.18,.24-.26-.14c-1.49-.84-2.36-2.47-2.18-4.17,.11-1.14,.66-2.17,1.54-2.91,.89-.72,2-1.07,3.15-.96,1.72,.17,3.17,1.34,3.69,3.01l.08,.29-.27,.12Zm18.82-1.76c-.15,.04-.32,.09-.51,.15l-.11,.04-.12-.04c-3.77-1.38-7.46-5.08-7.59-7.62-.05-.93,.4-1.6,1.36-2.05,2.73-1.27,6.4,3.98,6.43,4.03l.08,.09v.12c.02,1.71,.24,3.3,.69,4.86l.09,.33-.33,.08Z"/></g></g></g></svg>