<?xml version="1.0" encoding="UTF-8"?><svg xmlns="http://www.w3.org/2000/svg" viewBox="0 0 66.13 67.65"><defs><style>.d{fill:#fff;}</style></defs><g id="a"/><g id="b"><g id="c"><g><path class="d" d="M33.06,67.65C14.83,67.65,0,52.81,0,34.59c0-3.06,.42-6.09,1.25-9.01l.96,.27c-.8,2.83-1.21,5.77-1.21,8.73,0,17.68,14.38,32.06,32.06,32.06s32.07-14.38,32.07-32.06c0-2.95-.4-5.89-1.2-8.74l.96-.27c.82,2.94,1.24,5.96,1.24,9,0,18.23-14.83,33.06-33.07,33.06Z"/><path class="d" d="M55.16,52.77l-.77-.64c4.06-4.93,6.3-11.17,6.3-17.55,0-15.23-12.39-27.62-27.62-27.62S5.44,19.36,5.44,34.59c0,6.39,2.23,12.63,6.29,17.55l-.77,.64c-4.2-5.1-6.51-11.56-6.51-18.19,0-15.78,12.84-28.62,28.62-28.62s28.62,12.84,28.62,28.62c0,6.62-2.32,13.08-6.52,18.19Z"/><g><path class="d" d="M3.53,18.75c.3,.15,.49,.36,.57,.63,.08,.27,.04,.57-.12,.9l-.41,.85,1.39,.67-.17,.36-3.36-1.63,.59-1.21c.16-.33,.37-.54,.64-.65,.26-.1,.56-.08,.88,.08Zm-.17,.35c-.23-.11-.43-.13-.61-.06-.17,.07-.32,.23-.43,.46l-.4,.82,1.33,.65,.4-.82c.11-.23,.15-.44,.1-.62-.04-.18-.18-.32-.39-.43Z"/><path class="d" d="M4.96,18.24l1.4,.86-.21,.34-3.18-1.96,.73-1.18c.18-.3,.41-.48,.67-.56,.26-.07,.53-.02,.82,.15,.23,.14,.38,.32,.45,.53,.07,.21,.07,.44-.01,.68l1.89,.13-.24,.39-1.84-.14-.47,.76Zm.21-.99c.13-.21,.17-.4,.14-.57s-.14-.32-.34-.44c-.2-.12-.38-.16-.55-.11-.17,.05-.32,.18-.45,.39l-.5,.82,1.19,.73,.5-.82Z"/><path class="d" d="M6.67,16.01l-.77-.59c-.39-.3-.61-.61-.65-.94-.04-.33,.06-.65,.3-.96,.24-.31,.52-.49,.85-.54,.32-.05,.68,.08,1.08,.38l.77,.59c.39,.3,.61,.61,.65,.94,.04,.33-.06,.65-.3,.96-.24,.32-.52,.5-.85,.54-.32,.05-.68-.08-1.08-.38Zm.58-2.32c-.58-.44-1.05-.43-1.41,.05-.18,.24-.25,.47-.21,.69,.04,.23,.22,.45,.52,.69l.77,.59c.29,.22,.55,.32,.77,.3,.22-.02,.43-.15,.61-.38,.36-.47,.27-.92-.29-1.35l-.77-.59Z"/><path class="d" d="M7.97,10.77c.27-.29,.57-.44,.9-.45s.67,.15,1.03,.49l.64,.6c.36,.34,.54,.67,.55,1,0,.33-.13,.63-.4,.92l-.88,.93-2.72-2.57,.88-.93Zm2.31,.95l-.64-.61c-.28-.26-.53-.39-.76-.4-.23,0-.45,.09-.64,.3l-.61,.64,2.2,2.08,.61-.64c.41-.43,.36-.89-.15-1.37Z"/><path class="d" d="M11.83,11.39c-.21-.07-.39-.2-.55-.39l-1.63-1.92,.3-.26,1.61,1.89c.19,.22,.39,.34,.62,.36,.23,.02,.45-.05,.65-.23,.2-.17,.31-.38,.33-.61,.01-.23-.07-.46-.26-.68l-1.61-1.89,.3-.26,1.63,1.92c.16,.19,.26,.39,.3,.6s.02,.43-.06,.63c-.08,.21-.21,.39-.4,.55-.19,.16-.39,.26-.6,.31-.22,.05-.43,.03-.64-.04Z"/><path class="d" d="M13.79,8.7l-.55-.8c-.28-.41-.39-.77-.32-1.1s.27-.6,.6-.83c.21-.14,.42-.23,.63-.26,.21-.03,.41,0,.6,.08s.34,.22,.47,.41h0l-.33,.24h0c-.14-.21-.31-.33-.52-.35s-.43,.04-.65,.19c-.25,.17-.39,.37-.42,.6-.03,.23,.06,.5,.28,.82l.55,.8c.39,.58,.85,.69,1.36,.34,.22-.15,.36-.33,.41-.53,.05-.2,0-.4-.13-.6v-.02l.31-.22v.02c.21,.29,.27,.58,.2,.88-.07,.3-.27,.56-.59,.78-.33,.23-.66,.31-.99,.26-.33-.05-.63-.29-.91-.69Z"/><path class="d" d="M16.59,4.56l1.65,2.95-.34,.19-1.65-2.95-.93,.52-.17-.31,2.21-1.23,.17,.31-.93,.52Z"/><path class="d" d="M18.88,5.59l-.39-.89c-.2-.45-.24-.83-.11-1.14,.12-.3,.37-.54,.73-.7,.36-.16,.69-.18,1-.06s.56,.4,.76,.85l.39,.89c.2,.45,.24,.83,.12,1.14-.12,.3-.36,.54-.72,.69-.36,.16-.7,.18-1,.07-.3-.12-.56-.4-.76-.85Zm1.62-1.76c-.29-.66-.71-.88-1.26-.64-.28,.12-.45,.29-.52,.51-.07,.22-.03,.5,.13,.85l.39,.89c.15,.33,.32,.55,.53,.64s.45,.08,.72-.04c.54-.24,.68-.68,.4-1.32l-.39-.89Z"/><path class="d" d="M21.9,4.65l.37-.12c.2,.45,.56,.6,1.07,.43,.27-.09,.45-.21,.55-.37,.1-.16,.12-.35,.05-.56-.06-.2-.17-.32-.31-.39-.14-.06-.33-.08-.57-.04l-.42,.06c-.3,.05-.56,.02-.76-.08-.2-.1-.35-.28-.44-.55-.1-.31-.08-.59,.07-.83s.4-.42,.74-.53c.32-.1,.6-.11,.85,0,.25,.1,.45,.31,.6,.63l-.37,.12c-.19-.43-.51-.57-.98-.41-.24,.08-.41,.2-.51,.36-.1,.16-.12,.34-.05,.54,.06,.17,.15,.29,.29,.36,.14,.06,.32,.08,.54,.05l.43-.06c.31-.05,.58-.02,.79,.09,.21,.1,.36,.29,.45,.58,.11,.32,.08,.61-.08,.85s-.43,.43-.8,.56c-.36,.12-.66,.12-.92,.01-.26-.11-.46-.33-.6-.66Z"/><path class="d" d="M28.8,3.99l-.39,.07-.31-1.7-1.72,.31,.31,1.7-.39,.07-.66-3.67,.39-.07,.29,1.62,1.72-.31-.29-1.62,.39-.07,.66,3.67Z"/><path class="d" d="M29.64,.16l.39,3.72-.39,.04-.39-3.72,.39-.04Z"/><path class="d" d="M33.29,1.08c.01,.34-.08,.6-.29,.8-.2,.2-.49,.3-.85,.32l-.95,.03,.05,1.54h-.39l-.13-3.72L32.08,0c.37-.01,.66,.07,.87,.26s.33,.46,.34,.82Zm-.39,.01c0-.26-.09-.44-.23-.56-.15-.12-.35-.18-.61-.17l-.92,.03,.05,1.48,.92-.03c.26,0,.46-.07,.6-.2,.14-.12,.2-.31,.19-.55Z"/><path class="d" d="M33.89,2.33l.06-.97c.03-.49,.17-.85,.42-1.06s.57-.31,.97-.28c.39,.03,.7,.16,.91,.4,.22,.24,.31,.61,.28,1.11l-.06,.97c-.03,.49-.17,.85-.42,1.06-.25,.21-.57,.31-.96,.28-.4-.03-.7-.16-.92-.4-.22-.24-.31-.61-.28-1.11Zm2.25-.81c.05-.72-.23-1.1-.82-1.14-.3-.02-.53,.05-.69,.21s-.26,.43-.28,.81l-.06,.97c-.02,.36,.04,.63,.18,.81,.14,.18,.36,.27,.66,.29,.59,.04,.91-.29,.96-.98l.06-.97Z"/><path class="d" d="M37.56,3.14l-.46,.83-.41-.07,1.96-3.46,.33,.05,.72,3.91-.41-.07-.16-.94-1.56-.26Zm1.16-2.12l-.99,1.81,1.34,.23-.35-2.04Z"/><path class="d" d="M41.4,1l-.87,3.27,1.8,.48-.09,.35-2.18-.58,.96-3.61,.38,.1Z"/><path class="d" d="M43.82,3.44l1.5,.56-.12,.34-1.5-.56-.47,1.28,1.76,.65-.12,.34-2.13-.79,1.29-3.51,2.13,.79-.12,.34-1.76-.65-.45,1.22Z"/><path class="d" d="M46.48,4.97l-.72,1.47-.36-.17,1.63-3.36,1.25,.61c.31,.15,.52,.35,.62,.61s.08,.53-.07,.83c-.12,.24-.28,.41-.48,.5-.2,.09-.43,.11-.68,.05l.06,1.89-.41-.2-.04-1.84-.81-.39Zm1.01,.11c.22,.11,.41,.13,.58,.08,.17-.05,.31-.18,.41-.38,.1-.21,.12-.39,.05-.56-.07-.16-.21-.3-.43-.41l-.86-.42-.61,1.26,.86,.42Z"/><path class="d" d="M48.89,6.46l.51-.82c.26-.42,.55-.67,.87-.74s.65,0,.99,.21c.22,.13,.38,.29,.5,.47,.11,.18,.17,.37,.17,.57s-.06,.4-.18,.59v.02l-.35-.21v-.02c.14-.2,.17-.4,.11-.61-.06-.2-.21-.37-.43-.51-.26-.16-.49-.2-.72-.14s-.43,.26-.64,.58l-.51,.83c-.37,.59-.29,1.05,.23,1.37,.24,.15,.47,.2,.68,.15,.21-.05,.4-.22,.58-.51l.15-.24-.76-.47,.18-.29,1.1,.68-.29,.47c-.26,.42-.54,.66-.86,.73-.32,.07-.64,0-.97-.21-.34-.21-.55-.47-.63-.79-.08-.32,0-.69,.27-1.11Z"/><path class="d" d="M52.48,7.98l1.27,.97-.22,.28-1.27-.97-.83,1.08,1.49,1.14-.22,.28-1.8-1.37,2.26-2.97,1.8,1.37-.22,.28-1.49-1.14-.79,1.03Zm2.64-1.36l-.93,.14-.27-.21,.84-.21,.36,.28Z"/><path class="d" d="M55.18,13.02l-.29-.27,.65-3.52-2.06,2.2-.29-.27,2.56-2.73,.29,.27-.64,3.51,2.05-2.19,.29,.27-2.56,2.73Z"/><path class="d" d="M58.74,11.41l-2.76,2.52-.27-.29,2.76-2.52,.27,.29Z"/><path class="d" d="M57.59,13.62l.76-.6c.39-.31,.75-.44,1.08-.39,.33,.05,.62,.23,.86,.54,.16,.2,.26,.4,.3,.61,.05,.21,.03,.41-.04,.6s-.2,.36-.38,.5h-.01l-.25-.3h.01c.19-.16,.29-.34,.3-.55,.01-.21-.06-.42-.23-.64-.19-.24-.39-.36-.62-.38-.23-.02-.5,.09-.8,.33l-.77,.6c-.55,.43-.63,.89-.25,1.38,.17,.21,.36,.34,.56,.37,.21,.04,.4-.02,.59-.17h.02l.24,.29h-.02c-.28,.23-.56,.31-.87,.26s-.57-.23-.81-.53c-.25-.31-.36-.64-.32-.97,.03-.33,.24-.65,.63-.95Z"/><path class="d" d="M59.63,16.27l.82-.52c.42-.26,.79-.36,1.11-.28,.32,.08,.59,.28,.8,.62,.21,.33,.28,.66,.21,.98s-.31,.61-.73,.88l-.82,.52c-.42,.26-.79,.36-1.11,.28-.32-.08-.58-.28-.79-.61-.21-.34-.28-.66-.21-.98,.07-.32,.31-.61,.73-.88Zm1.98,1.34c.61-.39,.76-.83,.44-1.34-.16-.25-.35-.4-.58-.43-.23-.04-.5,.05-.82,.25l-.82,.52c-.31,.2-.49,.4-.55,.62-.06,.22,0,.45,.15,.7,.32,.5,.77,.57,1.36,.2l.82-.52Z"/><path class="d" d="M61,19.11l.17,.35c-.42,.27-.51,.64-.26,1.13,.13,.25,.28,.42,.45,.49s.36,.06,.56-.04c.18-.09,.3-.21,.34-.36,.04-.15,.03-.34-.04-.57l-.12-.41c-.09-.29-.1-.55-.04-.76,.07-.22,.23-.39,.48-.51,.29-.15,.57-.16,.84-.05,.26,.11,.47,.33,.64,.65,.15,.3,.19,.58,.13,.84s-.23,.49-.53,.69l-.18-.35c.4-.25,.48-.59,.26-1.03-.12-.23-.26-.38-.43-.45s-.35-.06-.54,.03c-.16,.08-.27,.2-.31,.34s-.03,.33,.03,.54l.13,.42c.09,.3,.1,.57,.03,.79-.07,.22-.24,.4-.5,.53-.3,.15-.59,.17-.86,.05-.27-.12-.49-.36-.67-.71-.17-.34-.22-.64-.15-.91,.07-.27,.26-.5,.56-.69Z"/></g><g><path class="d" d="M14.93,55.18l1.17,.98-.22,.26-1.17-.98-1.05,1.25-.29-.24,2.29-2.73,1.66,1.39-.22,.26-1.37-1.15-.8,.96Z"/><path class="d" d="M16.39,57.22l.52-.77c.26-.39,.55-.62,.86-.67,.31-.06,.62,.02,.93,.23,.31,.21,.5,.47,.56,.77,.06,.31-.04,.65-.3,1.05l-.52,.77c-.26,.39-.55,.62-.86,.67-.31,.06-.62-.02-.93-.23-.31-.21-.5-.47-.57-.78-.06-.31,.04-.65,.3-1.05Zm2.24,.41c.39-.57,.34-1.02-.13-1.34-.24-.16-.46-.21-.67-.16-.21,.05-.42,.23-.62,.54l-.52,.77c-.19,.29-.28,.54-.24,.75,.03,.21,.17,.4,.4,.56,.47,.32,.89,.2,1.26-.35l.52-.77Zm1.04-2.09l-.88,.19-.27-.18,.79-.25,.36,.24Z"/><path class="d" d="M19.61,58.98l-.72,1.39-.33-.17,1.64-3.16,1.17,.61c.3,.15,.49,.35,.58,.59,.09,.24,.06,.5-.09,.79-.12,.23-.27,.38-.47,.47s-.41,.1-.65,.03v1.81l-.38-.2v-1.76l-.75-.4Zm.96,.13c.21,.11,.39,.14,.56,.09s.3-.16,.4-.35c.1-.2,.12-.37,.06-.53-.06-.16-.19-.29-.4-.4l-.81-.42-.61,1.18,.81,.42Z"/><path class="d" d="M24.43,62.75l-.35-.13,.96-2.62-1.66,1.61-.27-.1-.24-2.3-.96,2.62-.35-.13,1.22-3.35,.36,.13,.26,2.65,1.9-1.86,.35,.13-1.22,3.35Z"/><path class="d" d="M25.76,62.54c-.06-.2-.07-.41-.02-.64l.52-2.34,.37,.08-.51,2.31c-.06,.27-.03,.49,.08,.68,.12,.19,.3,.31,.55,.37,.25,.06,.46,.02,.65-.1,.19-.12,.31-.32,.37-.58l.51-2.31,.37,.08-.52,2.34c-.05,.23-.15,.42-.29,.57-.14,.15-.31,.26-.52,.32-.2,.06-.42,.06-.65,.01-.23-.05-.42-.14-.58-.28-.16-.14-.27-.31-.34-.51Z"/><path class="d" d="M29.68,60.22l-.34,3.2,1.76,.19-.04,.34-2.14-.23,.38-3.54,.37,.04Z"/><path class="d" d="M32.22,63.12l-.31,.85h-.4l1.35-3.55h.31l1.24,3.58h-.4l-.29-.87-1.51-.02Zm.79-2.17l-.67,1.85,1.29,.02-.62-1.87Z"/><path class="d" d="M35.85,62.87l.37-.05c.11,.46,.42,.65,.94,.58,.27-.04,.46-.12,.58-.25,.12-.13,.17-.31,.14-.52-.03-.19-.1-.33-.22-.42-.12-.08-.3-.13-.53-.13h-.41c-.29-.02-.53-.09-.7-.21-.17-.13-.28-.32-.32-.59-.04-.31,.03-.57,.21-.77,.18-.2,.45-.33,.79-.38,.31-.04,.58,0,.8,.13,.22,.13,.38,.36,.46,.69l-.37,.05c-.1-.43-.39-.62-.85-.55-.24,.03-.42,.12-.54,.25s-.16,.3-.14,.5c.02,.17,.09,.3,.21,.38,.12,.08,.28,.13,.5,.14h.42c.3,.02,.54,.09,.72,.23s.29,.34,.33,.62c.04,.32-.03,.58-.22,.79-.19,.21-.47,.33-.85,.39-.36,.05-.64,0-.87-.14-.22-.15-.38-.38-.46-.72Z"/><path class="d" d="M39.1,61.35l1.48-.37,.08,.33-1.48,.37,.32,1.26,1.73-.43,.08,.33-2.1,.52-.86-3.45,2.1-.52,.08,.33-1.73,.43,.3,1.2Z"/><path class="d" d="M41.64,61.36l-.32-.87c-.16-.44-.18-.8-.04-1.09,.13-.28,.38-.49,.74-.62,.23-.08,.44-.12,.65-.1,.2,.02,.38,.09,.53,.21s.26,.28,.34,.48v.02l-.35,.13v-.02c-.08-.21-.22-.36-.4-.43-.19-.07-.4-.06-.64,.02-.27,.1-.44,.25-.52,.45s-.06,.48,.07,.82l.32,.87c.23,.62,.62,.83,1.17,.63,.26-.09,.42-.23,.51-.42,.08-.19,.07-.43-.04-.74l-.09-.26-.8,.29-.11-.3,1.15-.42,.18,.5c.16,.44,.18,.8,.04,1.07-.13,.28-.38,.48-.73,.61-.35,.13-.67,.13-.96,0-.29-.13-.51-.41-.67-.85Z"/><path class="d" d="M45.23,60.78c-.18-.11-.32-.27-.42-.48l-1.09-2.14,.34-.17,1.08,2.11c.12,.24,.29,.4,.5,.47,.21,.07,.43,.05,.66-.07,.23-.12,.37-.28,.44-.49s.04-.44-.09-.68l-1.08-2.11,.34-.17,1.09,2.14c.11,.21,.15,.42,.14,.63-.01,.21-.08,.4-.2,.57-.12,.17-.29,.31-.49,.42-.21,.11-.42,.16-.63,.15-.21,0-.41-.06-.58-.18Z"/><path class="d" d="M47.88,58.17l.87,1.3-.31,.21-1.98-2.96,1.1-.73c.28-.19,.54-.26,.8-.22,.26,.04,.47,.19,.65,.46,.14,.21,.2,.42,.18,.64-.02,.21-.11,.41-.28,.59l1.59,.86-.36,.24-1.54-.85-.71,.48Zm.58-.78c.19-.13,.31-.28,.35-.44s0-.34-.12-.52c-.12-.18-.27-.29-.43-.31s-.35,.03-.54,.16l-.76,.51,.74,1.11,.76-.51Z"/><path class="d" d="M50.84,56.93l.32,.85-.3,.26-1.3-3.56,.24-.2,3.29,1.89-.3,.26-.78-.46-1.16,.97Zm-.83-2.15l.7,1.84,.99-.83-1.7-1Z"/></g><g><path class="d" d="M28.88,35.04l-9.6,9.6c-.08,.08-.18,.12-.3,.12-.11,0-.22-.04-.29-.12-.17-.16-.17-.43,0-.6l9.43-9.4,.07-.07v-.1l.05-2.5,.82,.86-.05,1.93c0,.1-.05,.2-.13,.28Z"/><path class="d" d="M35.85,40.01l.71,.75c-.32,.08-.64,.12-.97,.12-.39,0-.78-.06-1.15-.17l-.14-.04-.11,.1-9.37,9.41c-.08,.08-.19,.12-.3,.12s-.22-.04-.3-.12c-.08-.08-.12-.19-.12-.3s.04-.22,.12-.3l9.72-9.72c.09-.07,.2-.11,.31-.11,.05,0,.11,0,.15,.02,.41,.17,.83,.25,1.26,.25,.06,0,.12,0,.19-.01Z"/><path class="d" d="M47.54,29.7c0,.49-.21,.96-.57,1.31l-2.29,2.29c-.54,.54-1.07,1.17-1.74,2.04l-.07,.1c-.83,1.12-2.44,3.28-4.42,4.52l-.57-.61c1.93-1.1,3.57-3.3,4.4-4.41l.03-.04,.06-.09c.59-.81,1.17-1.5,1.78-2.1l2.29-2.3c.19-.19,.3-.44,.31-.71,0-.28-.11-.55-.31-.76-.19-.18-.46-.29-.73-.29s-.55,.11-.74,.29l-3.37,3.38c-.08,.08-.19,.12-.3,.12s-.22-.04-.31-.13c-.07-.06-.11-.15-.11-.25,0-.11,.04-.22,.12-.3l5.36-5.34c.21-.18,.33-.46,.33-.74s-.12-.55-.32-.73c-.19-.2-.46-.31-.73-.31s-.54,.11-.73,.31l-4.66,4.65c-.08,.08-.18,.12-.29,.12-.12,0-.22-.04-.3-.12s-.13-.19-.13-.3,.05-.22,.13-.3l5.4-5.4c.19-.19,.3-.46,.3-.74s-.11-.54-.3-.73c-.18-.19-.45-.3-.73-.3s-.55,.11-.73,.3l-5.02,5.01c-.08,.08-.18,.13-.3,.13-.11,0-.21-.05-.29-.13-.08-.08-.13-.18-.13-.3,0-.11,.05-.21,.13-.29l4.25-4.26c.19-.17,.3-.42,.31-.69,0-.3-.1-.58-.3-.77-.19-.21-.45-.33-.73-.33s-.54,.11-.74,.32l-4.06,3.99-.08,.08v.12c.03,.51-.16,1-.55,1.38l-1.31,1.31,.09,.17c2.12,3.68-.23,5.94-.71,6.35-.08,.06-.18,.09-.27,.09-.11,0-.22-.04-.29-.12l-.05-.04c-.14-.18-.1-.42,.09-.57l.04-.04c.5-.45,2.04-2.15,.68-4.89l-.19-.39-.24,.36c-.06,.1-.13,.18-.19,.27-.07,.09-.13,.19-.21,.29l-.22,.36c-.08,.11-.22,.19-.36,.19-.08,0-.15-.02-.21-.06-.09-.06-.16-.16-.18-.27-.02-.11,0-.22,.04-.29l.27-.34c.34-.49,.65-.87,.95-1.18l1.74-1.73c.2-.2,.3-.46,.3-.77,0-.28-.11-.55-.33-.77-.19-.18-.46-.29-.74-.29s-.54,.11-.73,.29l-3.4,3.25c-.75,.72-1.25,1.62-1.45,2.61l-.69-.73c.28-.94,.81-1.79,1.53-2.47l3.41-3.28c.35-.34,.82-.53,1.32-.53s.94,.18,1.28,.49c.02,.03,.04,.05,.06,.07,.03,.05,.06,.09,.1,.13l.18,.18,.18-.18,3.63-3.67c.35-.35,.82-.54,1.32-.54s.96,.19,1.3,.53c.2,.22,.35,.49,.44,.76l.09,.26,.25-.1c.23-.1,.47-.15,.72-.15,.5,0,.98,.19,1.33,.55,.53,.53,.7,1.38,.41,2.05l-.12,.26,.27,.08c.3,.09,.56,.24,.75,.43,.35,.35,.54,.81,.54,1.31s-.19,.97-.54,1.32l-.85,.85,.28,.16c.22,.13,.43,.25,.6,.42,.35,.35,.55,.82,.54,1.32Z"/></g><path class="d" d="M26.08,41.62c-.1,.08-.23,.13-.36,.13-.12,0-.24-.04-.31-.11-.17-.2-.18-.51-.01-.68,.1-.09,.22-.14,.35-.14,.12,0,.23,.04,.3,.13,.18,.2,.18,.51,.03,.67Z"/><path class="d" d="M28.99,42.4c-.09,.09-.22,.14-.35,.14s-.24-.05-.31-.12c-.18-.19-.18-.5-.01-.67,.09-.1,.22-.15,.34-.15s.23,.05,.31,.14c.18,.2,.18,.5,.02,.66Z"/><path class="d" d="M24.08,43.42c0,.11-.05,.22-.13,.29-.1,.09-.23,.14-.36,.14-.12,0-.24-.05-.31-.12-.17-.19-.18-.5-.02-.66,.1-.09,.22-.13,.36-.13,.12,0,.24,.04,.32,.12,.09,.1,.15,.23,.14,.36Z"/><path class="d" d="M26.86,44.53c-.09,.09-.22,.14-.35,.14s-.24-.05-.31-.12c-.17-.19-.18-.5-.01-.67,.09-.1,.22-.15,.34-.15s.23,.05,.31,.14c.18,.2,.18,.5,.02,.66Z"/><path class="d" d="M22.2,45.3c0,.12-.05,.22-.14,.3-.1,.08-.22,.13-.35,.13s-.24-.04-.31-.11c-.18-.2-.18-.51-.02-.66,.1-.09,.22-.14,.35-.14s.24,.05,.32,.13c.1,.09,.15,.22,.15,.35Z"/><path class="d" d="M24.98,46.42c-.1,.08-.22,.13-.36,.13-.12,0-.24-.04-.3-.11-.18-.2-.18-.51-.01-.68,.09-.09,.21-.14,.34-.14,.12,0,.23,.04,.31,.13,.17,.2,.18,.51,.02,.67Z"/><path class="d" d="M28.21,39.49c-.1,.08-.23,.13-.36,.13-.12,0-.24-.04-.31-.11-.17-.2-.18-.51-.01-.68,.1-.09,.21-.14,.33-.14s.24,.05,.32,.13c.18,.2,.18,.51,.03,.67Z"/><path class="d" d="M31.12,40.24c-.09,.09-.22,.13-.35,.13s-.24-.04-.32-.12c-.17-.17-.16-.48-.01-.65,.1-.09,.22-.14,.35-.14s.24,.05,.31,.12c.18,.19,.18,.5,.02,.66Z"/><path class="d" d="M30.34,37.36c-.1,.08-.23,.13-.36,.13-.12,0-.24-.04-.31-.11-.17-.2-.18-.51-.01-.68,.1-.09,.21-.14,.33-.14s.24,.05,.32,.13c.18,.2,.18,.51,.03,.67Z"/><polygon class="d" points="47.9 49.96 47.23 50.59 47.18 50.64 37.54 40.44 36.92 39.79 29.09 31.51 28.29 30.66 18.23 20.02 18.2 19.99 18.93 19.31 28.52 29.45 29.21 30.18 37.88 39.35 38.45 39.96 47.9 49.96"/></g></g></g></svg>