<?xml version="1.0" encoding="UTF-8"?><svg xmlns="http://www.w3.org/2000/svg" viewBox="0 0 66.12 67.64"><defs><style>.d{fill:#fff;}</style></defs><g id="a"/><g id="b"><g id="c"><g><path class="d" d="M33.06,67.64C14.83,67.64,0,52.81,0,34.58c0-4.97,1.08-9.75,3.2-14.21,1.17-2.47,2.65-4.78,4.39-6.87l.77,.64c-1.68,2.03-3.12,4.27-4.25,6.67-2.06,4.32-3.1,8.96-3.1,13.78,0,17.68,14.38,32.06,32.06,32.06s32.06-14.38,32.06-32.06c0-1.82-.15-3.6-.44-5.32-.92-5.55-3.31-10.78-6.91-15.13l.77-.64c3.71,4.48,6.18,9.87,7.13,15.6,.3,1.76,.46,3.61,.46,5.48,0,18.23-14.83,33.06-33.06,33.06Z"/><path class="d" d="M55.59,52.21l-.79-.62c3.84-4.9,5.87-10.78,5.87-17.01,0-15.23-12.39-27.62-27.62-27.62S5.44,19.35,5.44,34.58c0,6.24,2.03,12.12,5.86,17.01l-.79,.62c-3.97-5.07-6.08-11.16-6.08-17.63,0-15.78,12.84-28.62,28.62-28.62s28.62,12.84,28.62,28.62c0,6.46-2.1,12.55-6.09,17.63Z"/><g><path class="d" d="M8.63,10.07l2.34,2.44,1.34-1.29,.25,.26-1.63,1.57-2.59-2.7,.29-.27Z"/><path class="d" d="M10.92,7.99l2.41,2.85-.3,.26-2.41-2.85,.3-.26Z"/><path class="d" d="M15.41,8c.19,.26,.25,.52,.2,.79-.06,.26-.23,.5-.51,.7l-1.13,.82-2.19-3.02,1.11-.8c.28-.21,.55-.29,.81-.27s.48,.17,.66,.42c.11,.15,.17,.32,.18,.5s-.04,.35-.16,.5c.21-.07,.4-.07,.58-.01,.18,.06,.33,.19,.46,.37Zm-2.35,.4l.75-.55c.19-.14,.31-.29,.35-.45,.05-.16,0-.33-.12-.51-.13-.18-.27-.27-.44-.28-.17-.01-.35,.05-.54,.19l-.76,.55,.76,1.05Zm2.02-.19c-.13-.18-.29-.28-.46-.29-.18-.01-.37,.05-.57,.2l-.78,.56,.81,1.12,.77-.56c.2-.15,.32-.31,.36-.48s0-.36-.14-.54Z"/><path class="d" d="M16.11,6.83l.82,1.42-.34,.2-1.87-3.23,1.2-.7c.3-.18,.59-.23,.85-.18,.26,.06,.48,.23,.65,.52,.13,.23,.18,.46,.15,.68-.03,.22-.15,.42-.34,.6l1.61,1.01-.39,.23-1.55-1-.78,.45Zm.66-.78c.21-.12,.34-.27,.4-.44s.03-.35-.09-.55c-.12-.2-.26-.32-.43-.35s-.37,0-.58,.13l-.83,.48,.7,1.21,.83-.48Z"/><path class="d" d="M18.84,4.85l1.46-.66,.15,.33-1.46,.66,.57,1.24,1.71-.78,.15,.33-2.07,.94-1.55-3.4,2.07-.94,.15,.33-1.71,.78,.54,1.18Z"/><path class="d" d="M23.19,1.42c.38-.11,.71-.09,1,.06s.5,.47,.64,.94l.25,.84c.14,.47,.13,.85-.03,1.14-.16,.29-.43,.49-.81,.6l-1.22,.36-1.06-3.58,1.22-.36Zm1.52,1.98l-.25-.85c-.11-.36-.26-.61-.46-.73s-.43-.14-.7-.06l-.85,.25,.86,2.9,.85-.25c.57-.17,.75-.59,.55-1.26Z"/><path class="d" d="M26.16,2.36l1.57-.3,.07,.35-1.57,.3,.26,1.34,1.84-.35,.07,.35-2.23,.43-.71-3.66,2.22-.43,.07,.35-1.84,.35,.25,1.27Z"/><path class="d" d="M32.49,1.08c.02,.33-.07,.6-.27,.81-.2,.2-.48,.31-.84,.33l-.95,.05,.09,1.54-.39,.02-.21-3.73,1.34-.08c.36-.02,.66,.06,.88,.24s.34,.45,.36,.81Zm-.39,.02c-.01-.26-.1-.44-.24-.56-.15-.12-.35-.17-.61-.15l-.91,.05,.08,1.47,.91-.05c.26-.01,.46-.09,.59-.21s.19-.31,.18-.55Z"/><path class="d" d="M33.52,2.81l-.35,.89-.42-.02,1.51-3.68h.33l1.21,3.8-.42-.02-.28-.91-1.59-.06Zm.88-2.25l-.75,1.92,1.36,.05-.61-1.98Z"/><path class="d" d="M36.79,2.28l-.23,1.62-.39-.05,.52-3.7,1.37,.19c.35,.05,.61,.18,.78,.38s.24,.48,.19,.81c-.04,.26-.14,.47-.3,.62-.16,.15-.37,.24-.63,.26l.64,1.78-.45-.06-.61-1.74-.89-.12Zm1-.21c.24,.03,.43,0,.58-.1,.15-.1,.24-.26,.27-.48,.03-.23,0-.41-.12-.54s-.29-.22-.54-.25l-.95-.13-.19,1.38,.95,.13Z"/><path class="d" d="M39.82,3.53l-.52,.8-.41-.1,2.21-3.31,.32,.08,.44,3.95-.41-.1-.09-.95-1.54-.38Zm1.31-2.03l-1.12,1.73,1.32,.32-.2-2.06Z"/><path class="d" d="M44.93,4.95c-.11,.3-.29,.51-.54,.61-.25,.1-.54,.1-.87-.02l-1.32-.47,1.24-3.53,1.29,.46c.33,.12,.56,.29,.68,.51s.14,.49,.03,.78c-.06,.18-.17,.33-.31,.44-.15,.11-.31,.16-.5,.16,.18,.13,.29,.29,.34,.47s.04,.38-.04,.59Zm-.36-.16c.07-.21,.07-.39-.02-.55-.09-.15-.25-.27-.49-.36l-.91-.32-.46,1.3,.91,.32c.24,.08,.44,.09,.61,.02s.29-.21,.37-.42Zm-1.3-1.56l.88,.31c.22,.08,.41,.09,.57,.03s.28-.19,.35-.39c.07-.2,.06-.38-.02-.53s-.24-.26-.47-.34l-.88-.31-.43,1.23Z"/><path class="d" d="M46.48,4.48l1.45,.68-.15,.32-1.45-.68-.58,1.23,1.7,.8-.15,.32-2.05-.97,1.59-3.38,2.05,.97-.15,.32-1.69-.8-.55,1.18Z"/><path class="d" d="M50.15,8.84l-.34-.2-.1-3.58-1.55,2.58-.34-.2,1.93-3.2,.34,.2,.11,3.57,1.55-2.57,.34,.2-1.93,3.2Z"/><path class="d" d="M51.55,8.13l.59-.77c.3-.39,.61-.61,.94-.65,.33-.04,.65,.06,.96,.3,.31,.24,.49,.52,.54,.84s-.08,.68-.38,1.07l-.59,.77c-.3,.39-.61,.61-.94,.65s-.64-.06-.96-.3c-.32-.24-.5-.52-.54-.85-.05-.32,.08-.68,.38-1.07Zm2.32,.57c.44-.58,.42-1.05-.05-1.41-.24-.18-.47-.25-.69-.21-.22,.04-.45,.22-.68,.52l-.59,.77c-.22,.29-.32,.55-.3,.77s.15,.43,.38,.61c.47,.36,.92,.26,1.34-.29l.59-.77Z"/><path class="d" d="M53.81,10.3l.29,.26c-.3,.4-.25,.78,.15,1.15,.21,.19,.4,.29,.59,.3,.19,.01,.36-.07,.51-.23,.14-.15,.2-.3,.19-.46-.01-.16-.09-.33-.24-.52l-.26-.34c-.19-.24-.29-.48-.3-.7s.08-.44,.27-.65c.22-.24,.48-.35,.76-.34,.29,.01,.56,.14,.83,.39,.24,.23,.38,.47,.42,.74s-.05,.55-.26,.83l-.29-.26c.29-.37,.25-.72-.12-1.06-.19-.17-.38-.27-.56-.27-.19,0-.35,.06-.49,.22-.12,.14-.18,.28-.17,.43s.08,.32,.22,.5l.27,.35c.19,.25,.29,.5,.31,.73,.01,.23-.08,.46-.28,.67-.23,.25-.49,.36-.79,.35-.29-.02-.58-.16-.88-.43-.28-.26-.43-.52-.46-.8s.06-.56,.28-.85Z"/></g><g><path class="d" d="M14.93,55.17l1.17,.98-.22,.26-1.17-.98-1.05,1.25-.29-.24,2.3-2.73,1.66,1.39-.22,.26-1.37-1.15-.8,.96Z"/><path class="d" d="M16.39,57.21l.52-.77c.26-.39,.55-.62,.86-.67,.31-.06,.62,.02,.93,.23,.31,.21,.5,.47,.56,.77s-.04,.65-.3,1.05l-.52,.77c-.26,.39-.55,.62-.86,.67-.31,.06-.62-.02-.93-.23-.31-.21-.5-.47-.57-.78-.06-.31,.04-.65,.3-1.05Zm2.24,.41c.39-.57,.34-1.02-.13-1.34-.24-.16-.46-.21-.67-.16s-.42,.23-.62,.54l-.52,.77c-.19,.29-.28,.54-.24,.75,.03,.21,.17,.4,.4,.56,.47,.32,.89,.2,1.26-.35l.52-.77Zm1.04-2.09l-.88,.19-.27-.18,.79-.25,.36,.24Z"/><path class="d" d="M19.6,58.97l-.72,1.39-.33-.17,1.64-3.16,1.17,.61c.3,.15,.49,.35,.58,.59,.09,.24,.06,.51-.09,.79-.12,.23-.27,.38-.47,.47-.2,.08-.41,.1-.65,.03v1.81l-.38-.2v-1.76l-.75-.4Zm.96,.13c.21,.11,.39,.14,.56,.09,.17-.04,.3-.16,.4-.35,.1-.2,.12-.37,.06-.53-.06-.16-.19-.29-.4-.4l-.81-.42-.61,1.18,.81,.42Z"/><path class="d" d="M24.43,62.74l-.35-.13,.96-2.62-1.66,1.61-.27-.1-.24-2.3-.96,2.62-.35-.13,1.22-3.35,.35,.13,.26,2.65,1.91-1.86,.35,.13-1.22,3.35Z"/><path class="d" d="M25.76,62.53c-.06-.2-.07-.41-.02-.64l.52-2.34,.37,.08-.51,2.31c-.06,.27-.03,.49,.08,.68,.12,.19,.3,.31,.55,.37,.25,.05,.47,.02,.65-.1,.19-.12,.31-.32,.37-.58l.51-2.31,.37,.08-.52,2.34c-.05,.23-.15,.42-.29,.57-.14,.15-.31,.26-.52,.32-.2,.06-.42,.06-.65,.01-.23-.05-.42-.14-.58-.28-.16-.14-.27-.31-.34-.51Z"/><path class="d" d="M29.67,60.21l-.34,3.2,1.76,.19-.04,.34-2.14-.23,.38-3.54,.38,.04Z"/><path class="d" d="M32.22,63.11l-.31,.85h-.4l1.35-3.55h.31l1.24,3.58h-.4l-.29-.87-1.51-.02Zm.79-2.17l-.67,1.85,1.29,.02-.62-1.87Z"/><path class="d" d="M35.85,62.87l.37-.05c.11,.46,.43,.65,.94,.58,.27-.04,.46-.12,.58-.25s.17-.3,.14-.52c-.03-.19-.1-.33-.23-.42-.12-.08-.3-.13-.52-.14h-.41c-.29-.02-.53-.09-.7-.21-.17-.13-.28-.32-.32-.59-.04-.31,.03-.57,.21-.77s.45-.33,.79-.38c.31-.04,.58,0,.8,.14,.22,.13,.38,.36,.46,.69l-.37,.05c-.1-.43-.39-.62-.85-.55-.24,.03-.42,.12-.54,.25-.12,.13-.16,.3-.14,.5,.02,.17,.1,.3,.21,.38,.12,.08,.29,.13,.5,.14h.42c.3,.02,.54,.09,.72,.23,.18,.13,.29,.34,.33,.62,.04,.32-.03,.58-.22,.79-.19,.21-.47,.33-.85,.39-.35,.05-.64,0-.87-.14-.22-.15-.38-.39-.46-.72Z"/><path class="d" d="M39.1,61.34l1.48-.37,.08,.33-1.48,.37,.32,1.26,1.73-.43,.08,.33-2.1,.52-.86-3.45,2.1-.52,.08,.33-1.73,.43,.3,1.2Z"/><path class="d" d="M41.64,61.35l-.32-.87c-.16-.44-.18-.8-.04-1.09s.38-.49,.74-.62c.23-.08,.45-.12,.65-.1,.2,.02,.38,.09,.53,.21,.15,.12,.26,.28,.34,.48v.02l-.35,.13v-.02c-.08-.21-.22-.36-.4-.43-.19-.07-.4-.06-.64,.02-.27,.1-.44,.25-.52,.45s-.06,.48,.07,.82l.32,.87c.23,.62,.62,.83,1.17,.63,.25-.09,.42-.24,.51-.42,.08-.19,.07-.43-.04-.74l-.09-.26-.8,.29-.11-.3,1.15-.42,.18,.5c.16,.44,.18,.8,.04,1.07-.13,.28-.38,.48-.73,.61-.35,.13-.68,.13-.96,0-.29-.13-.51-.41-.67-.85Z"/><path class="d" d="M45.23,60.78c-.18-.11-.32-.27-.42-.48l-1.09-2.14,.34-.17,1.08,2.11c.12,.24,.29,.4,.5,.47,.21,.07,.43,.05,.66-.07,.23-.12,.37-.28,.44-.49,.07-.21,.04-.44-.09-.68l-1.08-2.11,.34-.17,1.09,2.14c.11,.21,.15,.42,.14,.63-.01,.21-.08,.4-.2,.57s-.28,.31-.49,.42-.42,.16-.63,.15c-.21,0-.41-.06-.58-.18Z"/><path class="d" d="M47.87,58.17l.87,1.3-.31,.21-1.98-2.96,1.1-.73c.28-.19,.54-.26,.8-.22,.25,.04,.47,.19,.65,.46,.14,.21,.2,.42,.18,.64-.02,.21-.11,.41-.28,.59l1.59,.86-.36,.24-1.54-.85-.71,.48Zm.58-.78c.19-.13,.31-.28,.35-.44,.04-.17,0-.34-.12-.52-.12-.18-.27-.29-.43-.31-.17-.02-.35,.03-.54,.16l-.76,.51,.74,1.11,.76-.51Z"/><path class="d" d="M50.83,56.93l.32,.85-.3,.26-1.3-3.56,.24-.2,3.29,1.89-.3,.26-.78-.46-1.16,.97Zm-.83-2.15l.7,1.84,.99-.83-1.7-1Z"/></g><g><rect class="d" x="39.45" y="16.2" width="1" height="12.33" transform="translate(.61 45.8) rotate(-60.02)"/><rect class="d" x="33.65" y="44.64" width="12.5" height="1" transform="translate(-17.23 26.01) rotate(-30.01)"/><rect class="d" x="19.63" y="27.51" width="1" height="12.42"/><rect class="d" x="26.21" y="38.89" width="1" height="12.49" transform="translate(-25.74 45.69) rotate(-59.99)"/><rect class="d" x="45.98" y="27.51" width="1" height="12.42"/><polygon class="d" points="21.57 25.88 21.07 25.01 31.86 18.78 31.99 18.78 32 19.29 32.24 19.71 21.57 25.88"/><path class="d" d="M46.48,28.01c-1.04,0-1.88-.84-1.88-1.88s.84-1.88,1.88-1.88,1.88,.84,1.88,1.88-.84,1.88-1.88,1.88Zm0-2.75c-.48,0-.88,.39-.88,.88s.39,.88,.88,.88,.88-.39,.88-.88-.39-.88-.88-.88Z"/><path class="d" d="M46.48,43.18c-1.04,0-1.88-.84-1.88-1.88s.84-1.88,1.88-1.88,1.88,.84,1.88,1.88-.84,1.88-1.88,1.88Zm0-2.75c-.48,0-.88,.39-.88,.88s.39,.88,.88,.88,.88-.39,.88-.88-.39-.88-.88-.88Z"/><path class="d" d="M20.13,28.01c-1.04,0-1.88-.84-1.88-1.88s.84-1.88,1.88-1.88,1.88,.84,1.88,1.88-.84,1.88-1.88,1.88Zm0-2.75c-.48,0-.88,.39-.88,.88s.39,.88,.88,.88,.88-.39,.88-.88-.39-.88-.88-.88Z"/><path class="d" d="M20.13,43.18c-1.04,0-1.88-.84-1.88-1.88s.84-1.88,1.88-1.88,1.88,.84,1.88,1.88-.84,1.88-1.88,1.88Zm0-2.75c-.48,0-.88,.39-.88,.88s.39,.88,.88,.88,.88-.39,.88-.88-.39-.88-.88-.88Z"/><path class="d" d="M33.3,20.77c-1.04,0-1.88-.84-1.88-1.88s.84-1.88,1.88-1.88,1.88,.84,1.88,1.88-.84,1.88-1.88,1.88Zm0-2.75c-.48,0-.88,.39-.88,.88s.39,.88,.88,.88,.88-.39,.88-.88-.39-.88-.88-.88Z"/><path class="d" d="M33.3,50.83c-1.04,0-1.88-.84-1.88-1.88s.84-1.88,1.88-1.88,1.88,.84,1.88,1.88-.84,1.88-1.88,1.88Zm0-2.75c-.48,0-.88,.39-.88,.88s.39,.88,.88,.88,.88-.39,.88-.88-.39-.88-.88-.88Z"/></g><path class="d" d="M37.67,27.72c-.62,0-1.4,.03-2.26,.12-1.94,.21-4.24,.72-5.64,2.11-1.01,1.01-1.66,2.46-1.82,3.93-.15,1.35,.12,2.73,.97,3.74l-1.53,1.53c-.14,.14-.14,.36,0,.5,.07,.07,.16,.1,.25,.1s.18-.04,.25-.1l1.77-1.77h0l5.5-5.5h0c.07-.07,.1-.16,.1-.25s-.04-.18-.1-.25-.16-.1-.25-.1-.18,.04-.25,.1l-5.24,5.24c-.67-.84-.9-1.99-.77-3.16,.14-1.31,.74-2.63,1.62-3.51,1.17-1.17,3.34-1.71,5.21-1.91,1.37-.15,2.57-.12,3.11-.1,0,.56,0,1.79-.15,3.18-.22,1.9-.76,4.07-1.84,5.15-1.32,1.32-3.65,1.98-5.42,1.48h0c-.09-.03-.19-.01-.27,.03-.08,.05-.14,.12-.17,.21-.05,.19,.06,.38,.24,.44,2.07,.59,4.59-.14,6.12-1.66,1.32-1.32,1.82-3.61,2.05-5.57,.23-1.96,.15-3.62,.15-3.62v-.31l-.33-.02s-.4-.03-1.05-.04c-.08,0-.17,0-.25,0h0Z"/></g></g></g></svg>