<?xml version="1.0" encoding="UTF-8"?><svg xmlns="http://www.w3.org/2000/svg" viewBox="0 0 66.13 67.7"><defs><style>.d{fill:#fff;}</style></defs><g id="a"/><g id="b"><g id="c"><g><path class="d" d="M33.06,67.7C14.83,67.7,0,52.87,0,34.64c0-3.06,.42-6.09,1.25-9.01l.96,.27c-.8,2.83-1.21,5.77-1.21,8.73,0,17.68,14.38,32.06,32.06,32.06s32.07-14.38,32.07-32.06c0-2.95-.4-5.89-1.2-8.74l.96-.27c.82,2.93,1.24,5.96,1.24,9,0,18.23-14.83,33.06-33.07,33.06Z"/><path class="d" d="M53.25,54.92l-.71-.71c5.25-5.23,8.14-12.18,8.14-19.57,0-15.23-12.39-27.62-27.62-27.62S5.44,19.41,5.44,34.64c0,7.39,2.89,14.34,8.14,19.57l-.71,.71c-5.44-5.42-8.43-12.62-8.43-20.28,0-15.78,12.84-28.62,28.62-28.62s28.62,12.84,28.62,28.62c0,7.66-2.99,14.86-8.43,20.28Z"/><g><path class="d" d="M2.54,20.81c.31,.13,.52,.32,.61,.59,.1,.27,.08,.57-.06,.9l-.36,.88,1.43,.58-.15,.37-3.46-1.4,.5-1.25c.14-.34,.33-.57,.59-.69,.26-.12,.55-.12,.88,.02Zm-.15,.37c-.24-.1-.44-.1-.61-.02-.17,.08-.3,.25-.4,.49l-.34,.85,1.37,.55,.34-.85c.1-.24,.12-.45,.06-.62-.06-.18-.2-.31-.42-.4Z"/><path class="d" d="M3.91,20.24l1.45,.76-.18,.35-3.31-1.74,.64-1.23c.16-.31,.37-.51,.63-.6,.25-.09,.53-.06,.83,.1,.24,.12,.4,.29,.49,.49,.09,.21,.1,.43,.03,.68h1.9l-.21,.4-1.84-.02-.42,.8Zm.14-1.01c.11-.21,.15-.41,.1-.58-.04-.17-.17-.31-.36-.42-.2-.11-.39-.13-.55-.07s-.3,.2-.42,.42l-.45,.85,1.24,.65,.45-.85Z"/><path class="d" d="M5.49,17.87l-.81-.54c-.41-.27-.65-.57-.71-.9-.06-.32,.02-.65,.24-.98,.22-.33,.49-.52,.81-.59,.32-.07,.69,.04,1.1,.31l.81,.54c.41,.27,.65,.57,.71,.9,.06,.32-.02,.65-.24,.97-.22,.33-.49,.53-.81,.59-.32,.07-.69-.04-1.1-.31Zm.42-2.35c-.6-.4-1.07-.36-1.4,.14-.17,.25-.22,.48-.16,.71,.06,.22,.25,.44,.56,.65l.81,.54c.3,.2,.57,.29,.79,.25,.22-.04,.42-.18,.58-.42,.33-.5,.21-.94-.37-1.32l-.81-.54Z"/><path class="d" d="M6.43,12.58c.25-.31,.54-.47,.87-.51,.32-.03,.68,.11,1.06,.42l.67,.56c.38,.31,.58,.64,.61,.96,.03,.32-.08,.64-.34,.95l-.81,.98-2.88-2.38,.81-.98Zm2.36,.8l-.68-.56c-.29-.24-.55-.36-.78-.35-.23,0-.44,.12-.62,.34l-.56,.68,2.33,1.92,.56-.68c.38-.46,.3-.91-.24-1.35Z"/><path class="d" d="M10.31,12.94c-.21-.06-.41-.17-.57-.35l-1.76-1.8,.29-.28,1.74,1.78c.2,.2,.42,.31,.65,.32,.23,0,.45-.08,.64-.27,.19-.19,.29-.4,.29-.63s-.1-.45-.3-.66l-1.74-1.78,.28-.28,1.76,1.8c.17,.18,.28,.37,.34,.58,.05,.21,.05,.42-.02,.64s-.19,.4-.36,.57c-.18,.17-.37,.29-.58,.35-.21,.06-.43,.06-.64,0Z"/><path class="d" d="M12.1,10.11l-.6-.76c-.31-.39-.44-.75-.39-1.08s.23-.62,.54-.86c.2-.16,.4-.26,.61-.3,.21-.05,.41-.03,.6,.04,.19,.07,.36,.2,.5,.38h.01l-.31,.26h0c-.15-.2-.33-.3-.54-.32-.21-.01-.42,.06-.64,.23-.24,.19-.36,.39-.38,.62-.02,.23,.09,.5,.33,.8l.6,.77c.43,.55,.89,.63,1.38,.25,.21-.17,.34-.35,.37-.56,.04-.21-.02-.4-.17-.59v-.02l.29-.24v.02c.23,.28,.31,.56,.26,.87-.05,.3-.23,.57-.53,.81-.32,.25-.64,.36-.97,.32s-.65-.24-.95-.63Z"/><path class="d" d="M14.62,5.79l1.84,2.84-.33,.21-1.84-2.84-.9,.58-.19-.3,2.12-1.37,.19,.3-.9,.58Z"/><path class="d" d="M16.98,6.66l-.45-.86c-.23-.44-.29-.81-.19-1.12,.1-.31,.33-.56,.68-.74,.35-.18,.68-.23,.99-.13,.31,.09,.58,.36,.81,.8l.45,.86c.23,.44,.29,.81,.19,1.12-.1,.31-.33,.56-.67,.74-.35,.18-.68,.23-1,.14-.31-.09-.58-.36-.81-.8Zm1.5-1.86c-.34-.64-.77-.82-1.3-.55-.26,.14-.42,.32-.48,.54-.05,.22,0,.5,.19,.84l.45,.86c.17,.32,.36,.52,.57,.6,.21,.08,.45,.04,.71-.09,.53-.28,.63-.72,.3-1.34l-.45-.86Z"/><path class="d" d="M19.91,5.53l.36-.15c.23,.44,.6,.56,1.1,.35,.26-.11,.44-.24,.53-.41s.09-.35,0-.56c-.08-.19-.19-.31-.33-.37s-.34-.06-.57,0l-.42,.09c-.3,.07-.55,.06-.76-.03-.21-.08-.37-.26-.47-.52-.12-.3-.12-.58,.02-.84,.14-.25,.37-.45,.71-.58,.31-.12,.59-.15,.85-.07,.26,.08,.47,.27,.64,.58l-.36,.15c-.21-.42-.55-.53-1.01-.35-.24,.1-.4,.23-.49,.39s-.09,.35-.01,.54c.07,.17,.17,.28,.31,.34s.32,.06,.54,.01l.43-.09c.31-.07,.58-.06,.79,.03,.21,.09,.38,.27,.49,.54,.13,.31,.12,.6-.02,.86-.14,.26-.4,.46-.76,.61-.35,.14-.66,.17-.92,.07-.27-.09-.48-.3-.65-.61Z"/><path class="d" d="M24.6,1.09c.38-.1,.72-.06,1,.1,.28,.17,.48,.49,.6,.97l.21,.85c.12,.48,.1,.86-.07,1.14-.17,.28-.45,.47-.83,.56l-1.24,.31-.92-3.62,1.24-.31Zm1.44,2.04l-.22-.86c-.09-.37-.24-.62-.43-.75s-.42-.16-.7-.09l-.86,.22,.74,2.93,.86-.22c.57-.15,.78-.56,.6-1.24Z"/><path class="d" d="M27.56,2.16l1.59-.23,.05,.35-1.58,.23,.2,1.35,1.85-.27,.05,.35-2.24,.33-.55-3.7,2.24-.33,.05,.35-1.85,.27,.19,1.29Z"/><path class="d" d="M31.35,2.42l-.02-.97c0-.49,.1-.86,.33-1.09,.23-.23,.54-.35,.94-.36,.39,0,.71,.1,.95,.33,.24,.23,.36,.59,.37,1.08l.02,.97c0,.49-.1,.86-.33,1.09-.23,.23-.54,.35-.94,.36-.4,0-.71-.1-.95-.33-.24-.23-.36-.59-.37-1.08Zm2.18-.99c-.01-.73-.32-1.08-.91-1.07-.3,0-.52,.09-.67,.27-.15,.17-.22,.45-.21,.84l.02,.97c0,.36,.09,.63,.24,.79s.38,.24,.68,.24c.6-.01,.89-.36,.88-1.06l-.02-.98Z"/><path class="d" d="M35.18,2.2l-.14,1.63-.39-.03,.33-3.72,1.38,.12c.35,.03,.61,.15,.8,.34,.18,.2,.26,.47,.23,.8-.02,.27-.11,.48-.27,.64-.16,.16-.36,.26-.62,.29l.73,1.75-.45-.04-.7-1.71-.89-.08Zm.98-.26c.24,.02,.43-.02,.58-.13,.14-.11,.22-.27,.24-.5,.02-.23-.03-.41-.15-.54-.12-.13-.3-.2-.55-.22l-.95-.08-.12,1.39,.95,.08Z"/><path class="d" d="M38.84,.53l-.6,3.69-.39-.06,.6-3.69,.39,.06Z"/><path class="d" d="M39.3,2.98l.22-.94c.11-.48,.31-.81,.6-.97,.28-.17,.62-.21,1-.11,.25,.06,.46,.16,.62,.29s.28,.3,.34,.49c.06,.19,.07,.4,.02,.61v.02l-.39-.09v-.02c.06-.23,.03-.43-.09-.6-.12-.17-.31-.29-.57-.35-.29-.07-.53-.04-.72,.09-.19,.13-.33,.38-.42,.75l-.23,.95c-.16,.68,.06,1.09,.65,1.23,.28,.07,.51,.04,.69-.08,.18-.12,.31-.34,.39-.67l.07-.28-.87-.21,.08-.33,1.25,.3-.13,.54c-.11,.48-.31,.8-.58,.96-.28,.16-.61,.2-.99,.11-.39-.09-.67-.28-.84-.55s-.21-.66-.09-1.14Z"/><path class="d" d="M43.22,3.3l1.51,.52-.12,.34-1.51-.52-.45,1.29,1.77,.61-.12,.34-2.14-.74,1.22-3.53,2.14,.74-.12,.34-1.77-.61-.42,1.23Z"/><path class="d" d="M47.34,7.24l-.36-.17-.48-3.55-1.27,2.73-.36-.17,1.58-3.39,.36,.17,.49,3.54,1.27-2.72,.36,.17-1.58,3.39Z"/><path class="d" d="M51.26,9.68l-.33-.22,.05-3.58-1.66,2.51-.33-.22,2.06-3.12,.33,.22-.04,3.57,1.66-2.5,.33,.22-2.06,3.12Z"/><path class="d" d="M52.68,9.66l-.81,.49-.32-.27,3.42-2.01,.25,.21-1.33,3.74-.32-.27,.33-.89-1.22-1.01Zm2.06-1.25l-1.76,1.07,1.04,.87,.72-1.93Z"/><path class="d" d="M57.3,10.46l-2.38,2.4-.28-.27,2.38-2.4-.76-.75,.25-.25,1.79,1.78-.25,.25-.76-.75Z"/><path class="d" d="M56.47,13.65c.08-.21,.21-.39,.39-.54l1.93-1.61,.26,.31-1.91,1.59c-.22,.18-.34,.39-.37,.62-.03,.23,.05,.45,.22,.66,.17,.2,.37,.32,.61,.33,.23,.02,.46-.07,.68-.25l1.9-1.59,.25,.3-1.93,1.61c-.19,.16-.39,.25-.61,.29-.22,.04-.43,.01-.63-.07-.21-.08-.39-.22-.54-.41-.16-.19-.26-.39-.3-.61-.04-.22-.03-.43,.05-.64Z"/><path class="d" d="M59.62,15.89l-1.36,.92-.22-.33,3.11-2.08,.77,1.15c.2,.29,.27,.57,.23,.84-.04,.27-.2,.5-.48,.68-.22,.15-.44,.21-.67,.19-.22-.02-.43-.12-.62-.3l-.9,1.67-.25-.38,.89-1.62-.5-.75Zm.82,.61c.13,.2,.29,.32,.46,.37,.17,.04,.36,0,.54-.12,.19-.13,.3-.28,.32-.46,.02-.18-.03-.36-.17-.57l-.54-.8-1.16,.78,.54,.8Z"/><path class="d" d="M60.71,18.99l-.94,.15-.2-.37,3.93-.56,.16,.29-2.66,2.96-.2-.37,.65-.7-.75-1.4Zm2.39-.38l-2.04,.32,.64,1.2,1.4-1.52Z"/><path class="d" d="M64.75,20.74l-3.11,1.3,.72,1.72-.33,.14-.87-2.08,3.44-1.44,.15,.36Z"/></g><g><path class="d" d="M18.04,56.77l.23-.36,.77-.06,.32,.2-1.94,2.99-.31-.2,1.7-2.63-.77,.05Z"/><path class="d" d="M19.41,57.86c.36-.66,.8-.84,1.35-.54,.55,.3,.64,.77,.29,1.43l-.67,1.23c-.36,.67-.82,.85-1.36,.56-.54-.29-.63-.78-.27-1.44l.67-1.23Zm.67,1.88l.59-1.09c.15-.27,.22-.49,.21-.65s-.1-.29-.28-.38c-.17-.09-.33-.1-.47-.03-.14,.08-.28,.25-.43,.53l-.59,1.09c-.15,.27-.22,.49-.21,.65,.01,.16,.1,.28,.28,.38,.18,.09,.33,.1,.47,.03,.14-.08,.28-.25,.43-.53Z"/><path class="d" d="M21.62,59.02c.29-.69,.73-.91,1.29-.66,.57,.24,.71,.71,.42,1.4l-.55,1.29c-.3,.7-.73,.93-1.31,.68-.57-.24-.7-.71-.41-1.41l.55-1.29Zm.84,1.81l.49-1.14c.12-.29,.17-.51,.15-.67s-.13-.27-.31-.35c-.18-.08-.34-.07-.47,.02-.13,.09-.26,.28-.38,.57l-.49,1.14c-.12,.29-.17,.51-.15,.67,.02,.16,.13,.27,.31,.35,.18,.08,.34,.07,.47-.02s.26-.28,.38-.57Z"/><path class="d" d="M23.71,60.33l.2-.69c.07-.23,.17-.4,.3-.49,.14-.09,.3-.11,.5-.05,.21,.06,.34,.16,.41,.31,.06,.15,.06,.34,0,.57l-.2,.69c-.07,.24-.17,.41-.3,.51-.13,.09-.3,.11-.51,.05-.21-.06-.34-.16-.4-.31-.06-.15-.06-.35,.01-.59Zm3.32-.53l-2.83,2.89-.31-.09,2.83-2.89,.31,.09Zm-2.45,.76l.18-.64c.04-.16,.06-.28,.04-.36-.02-.08-.08-.13-.18-.16-.1-.03-.18-.01-.24,.05-.06,.06-.11,.17-.15,.33l-.18,.64c-.05,.17-.06,.29-.04,.37s.08,.14,.18,.17c.1,.03,.18,.01,.24-.05,.06-.06,.11-.17,.16-.34Zm1.24,1.84l.2-.69c.07-.23,.17-.4,.3-.49s.3-.11,.5-.05c.21,.06,.34,.16,.41,.31,.06,.15,.06,.34,0,.57l-.2,.69c-.07,.24-.17,.41-.3,.51-.13,.09-.3,.11-.51,.05s-.34-.16-.4-.31c-.06-.15-.06-.35,.01-.59Zm.87,.23l.18-.64c.04-.16,.06-.28,.04-.36-.02-.08-.08-.13-.18-.16-.1-.03-.18-.01-.24,.05-.06,.06-.11,.17-.16,.33l-.18,.64c-.05,.17-.06,.29-.04,.37s.08,.14,.17,.17c.1,.03,.18,.01,.24-.05,.06-.06,.11-.17,.16-.34Z"/><path class="d" d="M29.3,60.23l.59,3.03,1.24-2.83,.39,.04-1.54,3.41-.31-.03-.76-3.66,.39,.04Z"/><path class="d" d="M32.18,62.05l1.53,.02v.34l-1.53-.02-.02,1.3,1.78,.03v.34l-2.17-.03,.05-3.56,2.16,.03v.34l-1.79-.03-.02,1.24Z"/><path class="d" d="M34.62,62.71l-.09-.92c-.05-.47,.03-.82,.24-1.06,.2-.24,.49-.38,.87-.41,.24-.02,.46,0,.65,.07s.34,.18,.46,.34,.18,.34,.2,.55v.02l-.37,.04v-.02c-.02-.23-.12-.4-.28-.52-.16-.12-.37-.16-.62-.14-.28,.03-.49,.13-.62,.31-.13,.18-.18,.45-.14,.81l.09,.93c.06,.66,.39,.96,.97,.91,.27-.03,.47-.12,.6-.28,.13-.16,.18-.4,.14-.73l-.03-.27-.85,.08-.03-.32,1.22-.12,.05,.53c.05,.47-.03,.82-.23,1.05-.2,.23-.48,.37-.86,.41-.38,.04-.69-.04-.93-.24-.25-.2-.39-.53-.44-1Z"/><path class="d" d="M38.3,62.72l-.12,.9-.39,.08,.53-3.75,.31-.07,2,3.22-.39,.08-.47-.78-1.48,.31Zm.29-2.29l-.25,1.95,1.27-.27-1.02-1.68Z"/><path class="d" d="M43.76,62.07l-.36,.12-2.67-2.12,.92,2.71-.36,.12-1.15-3.37,.36-.12,2.66,2.11-.92-2.71,.36-.12,1.15,3.37Z"/><path class="d" d="M44.12,60.49l-.4-.83c-.21-.43-.25-.78-.15-1.08,.11-.29,.33-.52,.67-.69,.34-.16,.65-.19,.95-.09s.54,.36,.75,.79l.4,.83c.21,.43,.25,.78,.15,1.08s-.33,.52-.67,.69c-.34,.16-.66,.2-.96,.1s-.54-.36-.75-.79Zm1.49-1.73c-.3-.62-.71-.81-1.22-.57-.26,.12-.42,.29-.48,.5-.06,.21,0,.48,.15,.81l.4,.84c.15,.31,.33,.51,.53,.59,.2,.08,.43,.06,.68-.07,.51-.25,.62-.67,.33-1.27l-.4-.84Z"/><path class="d" d="M47.03,59.4l.32-.2c.29,.37,.65,.43,1.09,.15,.23-.14,.37-.3,.43-.47,.06-.17,.03-.35-.08-.53-.1-.17-.23-.26-.38-.29-.15-.03-.32,0-.53,.09l-.38,.16c-.27,.11-.51,.15-.72,.1-.21-.04-.39-.18-.53-.41-.17-.27-.21-.53-.12-.79,.08-.26,.27-.48,.57-.66,.27-.17,.53-.24,.79-.2,.26,.03,.49,.18,.7,.44l-.32,.2c-.27-.35-.61-.41-1-.16-.21,.13-.34,.28-.39,.45-.05,.17-.03,.34,.08,.51,.09,.15,.21,.24,.35,.26,.14,.03,.31,0,.51-.08l.39-.16c.28-.11,.53-.15,.75-.1,.22,.05,.4,.19,.55,.43,.17,.27,.21,.54,.12,.81-.09,.26-.3,.5-.62,.7-.3,.19-.59,.26-.85,.22-.27-.04-.5-.2-.71-.47Z"/></g><path class="d" d="M49.26,21.44c-.02-.55-.36-1.02-.88-1.22-.52-.2-1.08-.07-1.47,.32-1.8,1.87-3.98,2.89-6.09,3.87-2.82,1.3-5.48,2.53-5.76,5.61-.15,1.6,.67,3.23,2.25,4.47l.37,.28-.26,.39c-2.36,3.49-4.28,7.45-5.72,11.77l-.49,1.47-.46-1.48c-1.75-5.68-5.54-16.46-11.26-24.95-.1-.14-.25-.22-.41-.22-.1,0-.21,.03-.31,.09-.14,.09-.18,.23-.2,.3-.02,.13,.01,.26,.08,.37,7.87,11.68,11.99,27.75,12.03,27.91,.05,.23,.25,.39,.48,.39s.42-.14,.49-.38c1.47-5.48,3.69-10.46,6.61-14.76l.24-.37,.4,.2c1.17,.59,2.38,.88,3.61,.88s2.25-.3,3.14-.88c3.26-2.21,3.81-9.88,3.61-14.06Zm-4.19,13.25c-.7,.47-1.57,.71-2.52,.71s-1.89-.21-2.87-.63l-.59-.25,.39-.51c1.71-2.28,3.1-3.58,3.48-3.92,.25-.22,.27-.51,.09-.75-.08-.09-.2-.16-.33-.17-.13-.02-.25,.02-.35,.11l-.09,.09c-1.26,1.12-2.52,2.51-3.74,4.14l-.32,.42-.4-.34c-1.25-1.03-1.89-2.29-1.78-3.53,.23-2.35,2.12-3.35,5.19-4.78,2.06-.96,3.98-1.53,5.88-3.36l.91-.81,.04,.27c.09,.6,.15,1.2,.16,1.8,.08,4.93-.79,9.91-3.15,11.52Z"/></g></g></g></svg>